<mxfile host="app.diagrams.net" agent="Mozilla/5.0 (Windows NT 10.0; Win64; x64; rv:134.0) Gecko/20100101 Firefox/134.0" version="26.0.11">
  <diagram name="Page-1" id="97916047-d0de-89f5-080d-49f4d83e522f">
    <mxGraphModel dx="2790" dy="1303" grid="1" gridSize="10" guides="1" tooltips="1" connect="1" arrows="1" fold="1" page="1" pageScale="1.5" pageWidth="1169" pageHeight="827" background="none" math="0" shadow="0">
      <root>
        <mxCell id="0" />
        <mxCell id="1" parent="0" />
        <mxCell id="8" value="Pianificazione del Progetto" style="rounded=1;fillColor=#10739E;strokeColor=none;shadow=1;gradientColor=none;fontStyle=1;fontColor=#FFFFFF;fontSize=14;" parent="1" vertex="1">
          <mxGeometry x="282" y="615.5" width="200" height="64.5" as="geometry" />
        </mxCell>
        <mxCell id="34" value="" style="edgeStyle=elbowEdgeStyle;elbow=vertical;strokeWidth=4;endArrow=block;endFill=1;fontStyle=1;strokeColor=#23445D;" parent="1" target="8" edge="1">
          <mxGeometry x="22" y="165.5" width="100" height="100" as="geometry">
            <mxPoint x="790" y="490" as="sourcePoint" />
            <mxPoint x="122" y="165.5" as="targetPoint" />
            <Array as="points">
              <mxPoint x="590" y="550" />
            </Array>
          </mxGeometry>
        </mxCell>
        <mxCell id="CtdOX46LtKlbMSyHWcbX-59" value="" style="edgeStyle=elbowEdgeStyle;elbow=vertical;strokeWidth=4;endArrow=block;endFill=1;fontStyle=1;strokeColor=#23445D;exitX=0.5;exitY=1;exitDx=0;exitDy=0;entryX=0.5;entryY=0;entryDx=0;entryDy=0;" edge="1" parent="1" source="8" target="CtdOX46LtKlbMSyHWcbX-60">
          <mxGeometry x="62" y="165.5" width="100" height="100" as="geometry">
            <mxPoint x="382" y="706" as="sourcePoint" />
            <mxPoint x="382" y="736" as="targetPoint" />
          </mxGeometry>
        </mxCell>
        <mxCell id="CtdOX46LtKlbMSyHWcbX-60" value="Creazione dellaÂ &#xa;Documentazione" style="rounded=1;fillColor=#10739E;strokeColor=none;shadow=1;gradientColor=none;fontStyle=1;fontColor=#FFFFFF;fontSize=14;" vertex="1" parent="1">
          <mxGeometry x="180" y="731" width="200" height="64.5" as="geometry" />
        </mxCell>
        <mxCell id="CtdOX46LtKlbMSyHWcbX-61" value="" style="edgeStyle=elbowEdgeStyle;elbow=vertical;strokeWidth=4;endArrow=block;endFill=1;fontStyle=1;strokeColor=#23445D;exitX=0.5;exitY=1;exitDx=0;exitDy=0;entryX=0.5;entryY=0;entryDx=0;entryDy=0;" edge="1" parent="1" target="CtdOX46LtKlbMSyHWcbX-62" source="8">
          <mxGeometry x="62" y="165.5" width="100" height="100" as="geometry">
            <mxPoint x="622" y="680" as="sourcePoint" />
            <mxPoint x="622" y="736" as="targetPoint" />
            <Array as="points" />
          </mxGeometry>
        </mxCell>
        <mxCell id="CtdOX46LtKlbMSyHWcbX-62" value="Definizioni Milestone" style="rounded=1;fillColor=#10739E;strokeColor=none;shadow=1;gradientColor=none;fontStyle=1;fontColor=#FFFFFF;fontSize=14;" vertex="1" parent="1">
          <mxGeometry x="390" y="731" width="200" height="64.5" as="geometry" />
        </mxCell>
        <mxCell id="CtdOX46LtKlbMSyHWcbX-63" value="" style="edgeStyle=elbowEdgeStyle;elbow=vertical;strokeWidth=4;endArrow=block;endFill=1;fontStyle=1;strokeColor=#23445D;exitX=0.5;exitY=1;exitDx=0;exitDy=0;entryX=0.5;entryY=0;entryDx=0;entryDy=0;" edge="1" parent="1" source="CtdOX46LtKlbMSyHWcbX-60" target="CtdOX46LtKlbMSyHWcbX-64">
          <mxGeometry x="72" y="165.5" width="100" height="100" as="geometry">
            <mxPoint x="762" y="686" as="sourcePoint" />
            <mxPoint x="762" y="716" as="targetPoint" />
          </mxGeometry>
        </mxCell>
        <mxCell id="CtdOX46LtKlbMSyHWcbX-64" value="WBS" style="rounded=1;fillColor=#10739E;strokeColor=none;shadow=1;gradientColor=none;fontStyle=1;fontColor=#FFFFFF;fontSize=14;" vertex="1" parent="1">
          <mxGeometry x="180" y="821" width="200" height="64.5" as="geometry" />
        </mxCell>
        <mxCell id="CtdOX46LtKlbMSyHWcbX-65" value="" style="edgeStyle=elbowEdgeStyle;elbow=vertical;strokeWidth=4;endArrow=block;endFill=1;fontStyle=1;strokeColor=#23445D;exitX=0.5;exitY=1;exitDx=0;exitDy=0;entryX=0.5;entryY=0;entryDx=0;entryDy=0;" edge="1" parent="1" target="CtdOX46LtKlbMSyHWcbX-66" source="CtdOX46LtKlbMSyHWcbX-64">
          <mxGeometry x="72" y="165.5" width="100" height="100" as="geometry">
            <mxPoint x="280" y="900" as="sourcePoint" />
            <mxPoint x="762" y="820" as="targetPoint" />
          </mxGeometry>
        </mxCell>
        <mxCell id="CtdOX46LtKlbMSyHWcbX-66" value="Task Manager" style="rounded=1;fillColor=#10739E;strokeColor=none;shadow=1;gradientColor=none;fontStyle=1;fontColor=#FFFFFF;fontSize=14;" vertex="1" parent="1">
          <mxGeometry x="180" y="911" width="200" height="64.5" as="geometry" />
        </mxCell>
        <mxCell id="CtdOX46LtKlbMSyHWcbX-67" value="Gantt" style="rounded=1;fillColor=#10739E;strokeColor=none;shadow=1;gradientColor=none;fontStyle=1;fontColor=#FFFFFF;fontSize=14;" vertex="1" parent="1">
          <mxGeometry x="180" y="1000" width="200" height="64.5" as="geometry" />
        </mxCell>
        <mxCell id="CtdOX46LtKlbMSyHWcbX-68" value="" style="edgeStyle=elbowEdgeStyle;elbow=vertical;strokeWidth=4;endArrow=block;endFill=1;fontStyle=1;strokeColor=#23445D;exitX=0.5;exitY=1;exitDx=0;exitDy=0;entryX=0.5;entryY=0;entryDx=0;entryDy=0;" edge="1" parent="1" source="CtdOX46LtKlbMSyHWcbX-66" target="CtdOX46LtKlbMSyHWcbX-67">
          <mxGeometry x="72" y="165.5" width="100" height="100" as="geometry">
            <mxPoint x="290" y="896" as="sourcePoint" />
            <mxPoint x="290" y="921" as="targetPoint" />
          </mxGeometry>
        </mxCell>
        <mxCell id="CtdOX46LtKlbMSyHWcbX-69" value="Repository GitHub" style="rounded=1;fillColor=#10739E;strokeColor=none;shadow=1;gradientColor=none;fontStyle=1;fontColor=#FFFFFF;fontSize=14;" vertex="1" parent="1">
          <mxGeometry x="180" y="1090" width="200" height="64.5" as="geometry" />
        </mxCell>
        <mxCell id="CtdOX46LtKlbMSyHWcbX-70" value="" style="edgeStyle=elbowEdgeStyle;elbow=vertical;strokeWidth=4;endArrow=block;endFill=1;fontStyle=1;strokeColor=#23445D;exitX=0.5;exitY=1;exitDx=0;exitDy=0;entryX=0.5;entryY=0;entryDx=0;entryDy=0;" edge="1" parent="1" source="CtdOX46LtKlbMSyHWcbX-67" target="CtdOX46LtKlbMSyHWcbX-69">
          <mxGeometry x="72" y="165.5" width="100" height="100" as="geometry">
            <mxPoint x="290" y="986" as="sourcePoint" />
            <mxPoint x="290" y="1010" as="targetPoint" />
          </mxGeometry>
        </mxCell>
        <mxCell id="CtdOX46LtKlbMSyHWcbX-71" value="Verbale Riunioni" style="rounded=1;fillColor=#10739E;strokeColor=none;shadow=1;gradientColor=none;fontStyle=1;fontColor=#FFFFFF;fontSize=14;" vertex="1" parent="1">
          <mxGeometry x="180" y="1180" width="200" height="64.5" as="geometry" />
        </mxCell>
        <mxCell id="CtdOX46LtKlbMSyHWcbX-72" value="" style="edgeStyle=elbowEdgeStyle;elbow=vertical;strokeWidth=4;endArrow=block;endFill=1;fontStyle=1;strokeColor=#23445D;exitX=0.5;exitY=1;exitDx=0;exitDy=0;entryX=0.5;entryY=0;entryDx=0;entryDy=0;" edge="1" parent="1" source="CtdOX46LtKlbMSyHWcbX-69" target="CtdOX46LtKlbMSyHWcbX-71">
          <mxGeometry x="72" y="165.5" width="100" height="100" as="geometry">
            <mxPoint x="290" y="1075" as="sourcePoint" />
            <mxPoint x="290" y="1100" as="targetPoint" />
          </mxGeometry>
        </mxCell>
        <mxCell id="CtdOX46LtKlbMSyHWcbX-73" value="" style="edgeStyle=elbowEdgeStyle;elbow=vertical;strokeWidth=4;endArrow=block;endFill=1;fontStyle=1;strokeColor=#23445D;entryX=0.5;entryY=0;entryDx=0;entryDy=0;exitX=0.5;exitY=1;exitDx=0;exitDy=0;" edge="1" parent="1" source="CtdOX46LtKlbMSyHWcbX-71" target="CtdOX46LtKlbMSyHWcbX-74">
          <mxGeometry x="72" y="165.5" width="100" height="100" as="geometry">
            <mxPoint x="280" y="1240" as="sourcePoint" />
            <mxPoint x="290" y="1190" as="targetPoint" />
          </mxGeometry>
        </mxCell>
        <mxCell id="CtdOX46LtKlbMSyHWcbX-74" value="Analisi dei Rischi" style="rounded=1;fillColor=#10739E;strokeColor=none;shadow=1;gradientColor=none;fontStyle=1;fontColor=#FFFFFF;fontSize=14;" vertex="1" parent="1">
          <mxGeometry x="180" y="1270" width="200" height="64.5" as="geometry" />
        </mxCell>
        <mxCell id="CtdOX46LtKlbMSyHWcbX-75" value="Identificazione delle&#xa;precedenze" style="rounded=1;fillColor=#10739E;strokeColor=none;shadow=1;gradientColor=none;fontStyle=1;fontColor=#FFFFFF;fontSize=14;" vertex="1" parent="1">
          <mxGeometry x="390" y="821" width="200" height="64.5" as="geometry" />
        </mxCell>
        <mxCell id="CtdOX46LtKlbMSyHWcbX-76" value="" style="edgeStyle=elbowEdgeStyle;elbow=vertical;strokeWidth=4;endArrow=block;endFill=1;fontStyle=1;strokeColor=#23445D;exitX=0.5;exitY=1;exitDx=0;exitDy=0;entryX=0.5;entryY=0;entryDx=0;entryDy=0;" edge="1" parent="1" source="CtdOX46LtKlbMSyHWcbX-62" target="CtdOX46LtKlbMSyHWcbX-75">
          <mxGeometry x="72" y="165.5" width="100" height="100" as="geometry">
            <mxPoint x="290" y="806" as="sourcePoint" />
            <mxPoint x="290" y="831" as="targetPoint" />
          </mxGeometry>
        </mxCell>
        <mxCell id="CtdOX46LtKlbMSyHWcbX-77" value="Progettazione Database" style="rounded=1;fillColor=#10739E;strokeColor=none;shadow=1;gradientColor=none;fontStyle=1;fontColor=#FFFFFF;fontSize=14;" vertex="1" parent="1">
          <mxGeometry x="690" y="615.5" width="200" height="64.5" as="geometry" />
        </mxCell>
        <mxCell id="CtdOX46LtKlbMSyHWcbX-78" value="" style="edgeStyle=elbowEdgeStyle;elbow=vertical;strokeWidth=4;endArrow=block;endFill=1;fontStyle=1;strokeColor=#23445D;exitX=0.5;exitY=1;exitDx=0;exitDy=0;entryX=0.5;entryY=0;entryDx=0;entryDy=0;" edge="1" parent="1" target="CtdOX46LtKlbMSyHWcbX-77">
          <mxGeometry x="22" y="165.5" width="100" height="100" as="geometry">
            <mxPoint x="790" y="490" as="sourcePoint" />
            <mxPoint x="790" y="600" as="targetPoint" />
            <Array as="points">
              <mxPoint x="790" y="540" />
            </Array>
          </mxGeometry>
        </mxCell>
        <mxCell id="CtdOX46LtKlbMSyHWcbX-79" value="Implemenazione&#xa;WebApplication" style="rounded=1;fillColor=#10739E;strokeColor=none;shadow=1;gradientColor=none;fontStyle=1;fontColor=#FFFFFF;fontSize=14;" vertex="1" parent="1">
          <mxGeometry x="1340" y="615.5" width="200" height="64.5" as="geometry" />
        </mxCell>
        <mxCell id="CtdOX46LtKlbMSyHWcbX-80" value="" style="edgeStyle=elbowEdgeStyle;elbow=vertical;strokeWidth=4;endArrow=block;endFill=1;fontStyle=1;strokeColor=#23445D;exitX=0.5;exitY=1;exitDx=0;exitDy=0;entryX=0.5;entryY=0;entryDx=0;entryDy=0;" edge="1" parent="1" source="CtdOX46LtKlbMSyHWcbX-98" target="CtdOX46LtKlbMSyHWcbX-79">
          <mxGeometry x="22" y="165.5" width="100" height="100" as="geometry">
            <mxPoint x="790" y="490" as="sourcePoint" />
            <mxPoint x="392" y="626" as="targetPoint" />
            <Array as="points">
              <mxPoint x="980" y="550" />
            </Array>
          </mxGeometry>
        </mxCell>
        <mxCell id="CtdOX46LtKlbMSyHWcbX-81" value="Schema ER" style="rounded=1;fillColor=#10739E;strokeColor=none;shadow=1;gradientColor=none;fontStyle=1;fontColor=#FFFFFF;fontSize=14;" vertex="1" parent="1">
          <mxGeometry x="690" y="731" width="200" height="64.5" as="geometry" />
        </mxCell>
        <mxCell id="CtdOX46LtKlbMSyHWcbX-82" value="Modello Logico&#xa;Relazionale" style="rounded=1;fillColor=#10739E;strokeColor=none;shadow=1;gradientColor=none;fontStyle=1;fontColor=#FFFFFF;fontSize=14;" vertex="1" parent="1">
          <mxGeometry x="690" y="821" width="200" height="64.5" as="geometry" />
        </mxCell>
        <mxCell id="CtdOX46LtKlbMSyHWcbX-83" value="" style="edgeStyle=elbowEdgeStyle;elbow=vertical;strokeWidth=4;endArrow=block;endFill=1;fontStyle=1;strokeColor=#23445D;exitX=0.5;exitY=1;exitDx=0;exitDy=0;entryX=0.5;entryY=0;entryDx=0;entryDy=0;" edge="1" parent="1" source="CtdOX46LtKlbMSyHWcbX-77" target="CtdOX46LtKlbMSyHWcbX-81">
          <mxGeometry x="72" y="165.5" width="100" height="100" as="geometry">
            <mxPoint x="500" y="805" as="sourcePoint" />
            <mxPoint x="790" y="730" as="targetPoint" />
          </mxGeometry>
        </mxCell>
        <mxCell id="CtdOX46LtKlbMSyHWcbX-84" value="" style="edgeStyle=elbowEdgeStyle;elbow=vertical;strokeWidth=4;endArrow=block;endFill=1;fontStyle=1;strokeColor=#23445D;exitX=0.5;exitY=1;exitDx=0;exitDy=0;entryX=0.5;entryY=0;entryDx=0;entryDy=0;" edge="1" parent="1" source="CtdOX46LtKlbMSyHWcbX-81" target="CtdOX46LtKlbMSyHWcbX-82">
          <mxGeometry x="72" y="165.5" width="100" height="100" as="geometry">
            <mxPoint x="500" y="805" as="sourcePoint" />
            <mxPoint x="500" y="831" as="targetPoint" />
          </mxGeometry>
        </mxCell>
        <mxCell id="CtdOX46LtKlbMSyHWcbX-86" value="MySQL" style="rounded=1;fillColor=#10739E;strokeColor=none;shadow=1;gradientColor=none;fontStyle=1;fontColor=#FFFFFF;fontSize=14;" vertex="1" parent="1">
          <mxGeometry x="990" y="731" width="200" height="64.5" as="geometry" />
        </mxCell>
        <mxCell id="CtdOX46LtKlbMSyHWcbX-87" value="CRUD" style="rounded=1;fillColor=#10739E;strokeColor=none;shadow=1;gradientColor=none;fontStyle=1;fontColor=#FFFFFF;fontSize=14;" vertex="1" parent="1">
          <mxGeometry x="990" y="821" width="200" height="64.5" as="geometry" />
        </mxCell>
        <mxCell id="CtdOX46LtKlbMSyHWcbX-88" value="PHP" style="rounded=1;fillColor=#10739E;strokeColor=none;shadow=1;gradientColor=none;fontStyle=1;fontColor=#FFFFFF;fontSize=14;" vertex="1" parent="1">
          <mxGeometry x="1220" y="731" width="200" height="64.5" as="geometry" />
        </mxCell>
        <mxCell id="CtdOX46LtKlbMSyHWcbX-89" value="HTML/CSS" style="rounded=1;fillColor=#10739E;strokeColor=none;shadow=1;gradientColor=none;fontStyle=1;fontColor=#FFFFFF;fontSize=14;" vertex="1" parent="1">
          <mxGeometry x="1450" y="731" width="200" height="64.5" as="geometry" />
        </mxCell>
        <mxCell id="CtdOX46LtKlbMSyHWcbX-90" value="Testing/Debugging" style="rounded=1;fillColor=#10739E;strokeColor=none;shadow=1;gradientColor=none;fontStyle=1;fontColor=#FFFFFF;fontSize=14;" vertex="1" parent="1">
          <mxGeometry x="1670" y="731" width="200" height="64.5" as="geometry" />
        </mxCell>
        <mxCell id="CtdOX46LtKlbMSyHWcbX-91" value="" style="edgeStyle=elbowEdgeStyle;elbow=vertical;strokeWidth=4;endArrow=block;endFill=1;fontStyle=1;strokeColor=#23445D;exitX=0.5;exitY=1;exitDx=0;exitDy=0;entryX=0.5;entryY=0;entryDx=0;entryDy=0;" edge="1" parent="1" source="CtdOX46LtKlbMSyHWcbX-79" target="CtdOX46LtKlbMSyHWcbX-86">
          <mxGeometry x="22" y="165.5" width="100" height="100" as="geometry">
            <mxPoint x="1110" y="560" as="sourcePoint" />
            <mxPoint x="1110" y="686" as="targetPoint" />
            <Array as="points" />
          </mxGeometry>
        </mxCell>
        <mxCell id="CtdOX46LtKlbMSyHWcbX-92" value="" style="edgeStyle=elbowEdgeStyle;elbow=vertical;strokeWidth=4;endArrow=block;endFill=1;fontStyle=1;strokeColor=#23445D;exitX=0.5;exitY=1;exitDx=0;exitDy=0;entryX=0.5;entryY=0;entryDx=0;entryDy=0;" edge="1" parent="1" source="CtdOX46LtKlbMSyHWcbX-79" target="CtdOX46LtKlbMSyHWcbX-88">
          <mxGeometry x="22" y="165.5" width="100" height="100" as="geometry">
            <mxPoint x="1450" y="690" as="sourcePoint" />
            <mxPoint x="1100" y="741" as="targetPoint" />
            <Array as="points" />
          </mxGeometry>
        </mxCell>
        <mxCell id="CtdOX46LtKlbMSyHWcbX-93" value="" style="edgeStyle=elbowEdgeStyle;elbow=vertical;strokeWidth=4;endArrow=block;endFill=1;fontStyle=1;strokeColor=#23445D;exitX=0.5;exitY=1;exitDx=0;exitDy=0;entryX=0.5;entryY=0;entryDx=0;entryDy=0;" edge="1" parent="1" source="CtdOX46LtKlbMSyHWcbX-79" target="CtdOX46LtKlbMSyHWcbX-89">
          <mxGeometry x="22" y="165.5" width="100" height="100" as="geometry">
            <mxPoint x="1450" y="690" as="sourcePoint" />
            <mxPoint x="1330" y="741" as="targetPoint" />
            <Array as="points" />
          </mxGeometry>
        </mxCell>
        <mxCell id="CtdOX46LtKlbMSyHWcbX-94" value="" style="edgeStyle=elbowEdgeStyle;elbow=vertical;strokeWidth=4;endArrow=block;endFill=1;fontStyle=1;strokeColor=#23445D;exitX=0.5;exitY=1;exitDx=0;exitDy=0;entryX=0.5;entryY=0;entryDx=0;entryDy=0;" edge="1" parent="1" source="CtdOX46LtKlbMSyHWcbX-79" target="CtdOX46LtKlbMSyHWcbX-90">
          <mxGeometry x="22" y="165.5" width="100" height="100" as="geometry">
            <mxPoint x="1450" y="690" as="sourcePoint" />
            <mxPoint x="1560" y="741" as="targetPoint" />
            <Array as="points" />
          </mxGeometry>
        </mxCell>
        <mxCell id="CtdOX46LtKlbMSyHWcbX-95" value="" style="edgeStyle=elbowEdgeStyle;elbow=vertical;strokeWidth=4;endArrow=block;endFill=1;fontStyle=1;strokeColor=#23445D;exitX=0.5;exitY=1;exitDx=0;exitDy=0;entryX=0.5;entryY=0;entryDx=0;entryDy=0;" edge="1" parent="1" source="CtdOX46LtKlbMSyHWcbX-86" target="CtdOX46LtKlbMSyHWcbX-87">
          <mxGeometry x="72" y="165.5" width="100" height="100" as="geometry">
            <mxPoint x="800" y="806" as="sourcePoint" />
            <mxPoint x="800" y="831" as="targetPoint" />
          </mxGeometry>
        </mxCell>
        <mxCell id="CtdOX46LtKlbMSyHWcbX-97" value="" style="shape=image;verticalLabelPosition=bottom;labelBackgroundColor=default;verticalAlign=top;aspect=fixed;imageAspect=0;image=data:image/webp,UklGRqalAABXRUJQVlA4IJqlAACwkgSdASplBO4CPkkijkWioiUqJJCaSUAJCWduBkFyzL3416oUVx2rY2Dtm7940H3yPCcbP+71x/Y/8dy2eWf2n/u+Jf9D4Jnnv97/Yf4AP5X/XP+h/ePbl/xu687t/x/YF8K3nFz8/+F6Fn6t/vun1/u+Vr94/5eGMmvUGtD7Aa705iFs9f6s+e+1PL49/6P3h9dvyr/M/+H/F7235r/l/1mVh5Veb/5//r8vFQ48wUW76ly4f9PfkDKrpZ5AgQEVQyn1sTueJQX0ebi/XejQPFlIZnwZy9GvUPHfpB2Wy9H9RISArx+hqiSe43WklNKOlEeJY3PPWbRYvjb84aMw2tqKoyDXz7cleJehz9g97Gxaka9Ugc2bG95i4ncyxl3bFZoZs4ZcmaRPMvVfJYKYKSYKSQCSP7uJxJxhOes+cvlrMdJj1fky1pry2/YOi638qMaUvohaqbVIDPUgGI9G40jWlp9YmO1exXy/x5IzeHr88so7++B2Uz3tPDS9aLYuFo8aJWk8zn2JE3Pk9bOxv9K5hF8uwUEAiwM4eLSJjpTvShj+0pFH7+BIZOa+9q5UG4tqs0zcPAPD2VeW61KTk2Ts45J2/x1h0Usdq7lLmcgDm94wlvgjjcFtBxVQpFrLbNwZjKbm+rm73vgQgqqSCCFmCN6AWTzgBeCpgfBF6L+8/RarxVwhwNljL4yQOHwgYd64F7mtqLNaREEg0X1+1z3CQZHE4+8qIVh4KTbpPaHnhGjGYUMaH33ZbnafCCHNVZcxuy9CvnFsl8NAXL9L/4/m5VYTCLCzFG45rOXuSwOiE8zM+jKcuK1EBRygGYw10HXiPA0gRX+pREbsPcxH4QYwwF8tHTvmDxenf5rYNhvI7hpJNGnOL3F12+QccAe1XddhAOX7GdRwipASDHzM0dOjhH+ww6BoD6m+eRsR8IeaJAAFv7vKNN/cx9l9XDbjHzBPmSo0pwIV2892/lFn1lCjmB+PNstf5aw8giR1YAQuTG6UA/XMpfyvYyYFoizvKrCWE9/ZfnvNqs+87wRsLcZpVsPJ+HxRqjlhHJZjaHT0ijWsX90AnnVomfSU8SkMfb3tUrXivklz6lo+zwWjnJWSvalYAksrdS+xau3w5ADuFUu9nyqjpMsWrjtyKZz1aw4vItaBNj83gskHOuYgWdQbnhNQi46+Y7Tc/0XQO9yxvm0/GbTaqxptp1VZ1H5p6K6JLecSwq5RUdy1yp9TRywC1WcnO0SY40HtlutxRcYli83kDywYz9fH3qcQgg0Al2ZMOMvV2PwjP5k0khPh8DmcWJ88aLND7VXRIm0nQglcFvJqOTAstMKR9bjlZhq+jYWWhx0Ah/q1OKy0uTGRkZ8gRSrFFPfqvlku06S0l/nmFlVP+BSFr4A0Y2S2mXjBoTTyiDogRiBWzo34+FWAiib0HBBiJRsKa5SQGioGr6+6otFafW7t0uhD+Gf/Kpk8rhWzWKCNhmGvEuGUzTpQR4litFIcGDaA/33ETY/qRr29GWAyQC3GBxDGI9BpPsnbjoEQpLp6wKOWQbu+ExBNgKrxjg0zYx64htKPZY/N/z7T728lo3R1EZ0epqFp4T60r7DZiiLmIZMk+38nsznkw76FeJVVO9yIZkssIs7f7UGG9DlNnSrluCoM4hwXFzdPfqDjgkXn/ePEY5QN2O/AMU8x9jNuXNTOmPoxUwWnW109linSiiuRXb3NqYdk87jH9uteHxwaPq5DTdJ7YO6F9jZGhcuNMPjubgpHISVD4b68HmZ/rGnwXKPL2DA42RCAZz1Hh+Tb44xyPkHShkqnVZctDmcWdxZWieak697MDFQFsrtkHpROa2Xo1VwFirGDcinfcoPjojuvRssAbBzhf/czMB8Pc8jjJyUGgaD76u2w7mSswszHD1Y5z6YPafX8HmgmGGNkhUjK48F6VRwpsnZoOWc5dFqLjn1u2HLZbUBBCh3JvGxxxzoVij/pPOqr4wbepQjuze+tKbcGMzKQja6dFs5XMz+ROjlgDqj5NYj2yi9gejkAFP5EN7woydxsx+2Fl4dE2l2kHXcmYb+mB0NYLIF+3vSx/2by4DBLrZEDtextMyU6OARGIGpCkuzJh3o9Ab4EApd87hS5sNU6I0pmJ9FFkNc1QIEXQKkJF1IYzi1sSamijODdh8pOfKA/UrbuhArd6ZBg0HYF9VANP499mknu+OCdGBmeOx7HgSIX0TubaBG+lThCCEJKTwvsc+5dmpJxzLn1QzuzANDbS+lS5uoNIkF2jp+5IqaQ30D/mCBdjkPiriDADGz16V0bXuyxDhsIslgsZcDkGPi/hW1AezHSWsHojyvagVIXDpEw7pH9SYk2X1HPA1e/WR+FmNve6nRWcs8o5LMmIx1RTXp0oRmkCYWw+dlp+keEufkAT+L3kzEOBf4US0/zckeo5+SXfM+ZPZ69tRO9XKoMRrIr8zCNZg3SPcRrt0kdkCkWjUtU4Qrv/pgH9qfD5vdvGnTZkuJeepU+xCzC5VpAIDxP+QDxAsfXDCdbCI8nbuxBWnLRgPun7LygVc7Q96deficl1Zc+jxxhgsxuLcguq0aBLjIVoClnFjNOyNJEH51xoZkqvVqoVwodLyWI3xCMVbL1AQTbZqGX4gWimFPpQQBN2jlOyUgpB8vKdKCAU0gAArTi7LSXyPDaFZ0ipB+RS8ZB4G7gjaWmSdeaK6inat4qlO/hJSFrQJJLpJe0fkpgyyXESJ7kfE3+LxAbDoWZ6a8sN+zBS0yw02hUk34y/AZl09EgaAwymPPtWn0OYAMCI7+BmV4bDDm9eKIG3f3dWJdnlJI8/WjEadHOGD+rSh9ARj0RmSvQlsKWYefQU5S7pTntw5BMHf0vSso1MQbnZ4MGTPhHr1j2PWLJyN5q09KCAY5He+uqTWjL2iHbSDgQtTmLZfX6b7NfOi8MJVyUxTRtWEzthOpro0Z2OwLcmCzjX4QwDDllUUvDxwrrBsDvjaQsasoAYU4BCD/qga4Ty/8oEtPDRtGrneYNk2rJnH9XGIYd+38MGuTjNy++sd10hl1RVV723PxVpiWs27hCC6jKsBgcFloQilJB53MG8LsnwQbZpYD47hCRhf32yRKTcc1UssxzY3Ylv8WlXRAKXFapTnmctXB/o4omFmUU4WMRAX1YlmbNaKB+Vim9/L+o41sQGCmjVlyyhY0hNCN2e7hV2jNYWPXQiDnVk68KnT7Ljvo5qNULFWraKFYEl27CUamaGiFs/kQGEUgw1ISVoeOEHNm3HkuOnOFTTaUSJ0pKR16rT7qfpIW9DZ6YUBWtm5p9nUMYiysJlIawMPMBIEOT5aFZH4QaKdnhIbg/cfJHOFDM9xJgU7Xr8Uu1gCAUwsyYmVJ/AJzUkCy2/rQAWU9/gfYEFZO1A6FDXTkPF2KJODHiCYNgYpcSsqY0jif/WIWcY9wpyQ5gqh+8Fc+ndfaz/AEr6kyU3xjzvJOwe5lDPlyxViiw4qXRxuSbdgalujMex1+LH/4h+yL1yqsBM9AxADsAzXNesn5fTdG1XArgp54JVzysluav03gxh+7+JhTny3nDVvnUAJS93MdDFryO4FCwCy/ql/VnVoIBS/SnLhayaR/T2fhZkxGOVYPSyQaXcpmx/3dM0SNwXrhZzEPqQ1jNw3HKTUWkuhPsFP4JTBQ/oGsyT8Nx271JP6EOtS/AiaG4xkNfiQb9GltWXE+Wx8p8/tUlH7qcrkCXuYc9ykcTwPCNRwXxZOatl+NH1BvO4fddybmMlznBllZCGT0/OrAkSD6jOB85tNYJbYKXfpGetbOd1wixnc8SkU0VDkRZtjHTBkxGOlBD9CskPWDByOJIzvYAsAtBYU4qxuZT+TNqn7/NhjMk6j5KxDZFJalKq3qZl4otIoyMUO5DBhugu0OaUPhfeP4lw2edAGdcCSZKxPl9d0VtWQjCzQ6zAyFrvqTeTqiaS3VLUKvz5I65iCuOZOYPUAQ3Z+xldtku3QxDAFyzFwXDLSSgKcwLU2u8BOm9v2+EKWFwn8q5UP5pfE3rP8UOa4DUwQ3J4ouvy+Jn1AMlsuebxLg6Gys1NOAb3ImFmTEYwUgcj+skGchQCelOHsgcJaS0jGoyXawgFGzGtDMjF1H1Po9TA2xkx80shhgC/pNm+kEzOAevNVhfvpoLn/0+cOj+MzJAKdK8YTNDZnZlqWxYfRicINzBm9Ra694q/fBxRDwKx24mB22WV/l+2JzYYq3q82jeNcb5qkFVMWDm2CKHAHHpvI145Ir0fuydMEb4//39gD72C800YYyvglu/w2qTBY39LPbFOJm79NR4rIzJNVPsNVIZnfA83VX/EbyMZPsM8MfvSUutQRYj4jMMMq/BB77Y/nATONt/U95PViN6+kQ/2/RC+fpk/VljynCo6GpbaaK+SWneQ5OgH5q42KFJRJ0sB/pyxS2zuhD4RSx4c327RmFtiWiN7eANZGyjHQTPwvZNVrGGWn4DGFlMtTMlp6+FRcVo/pX20CS1wZmfdci7Khr9r8bsQBBoFpp+w4APetpoSxI6snYGV2BS6aBQ3M4RkDzrMzizJ+ecRkqa/kh/skE0LTH08BleGu9/S6BVcHrA8aMQQX/bhoOMDn8xsL13dkP5WlQXFZ7Smd1bk8qZ2OueDifZAP2T1TPC/2CeqjL9Wd/fywgAOS4CqyG4tVnxhdvENuR11zv+cgbOugpuZsVzT6K1jwm4NJy1Ro32IkOZ8sFgQ9Lc/T9et9izKURsrWtpEdt4pX7foPNmZwSqXyO6DUv/q1j5E6lqKqrkRBxO2fH2PEiusCwTRgong0n+aV2lz75Twe09Y3E5Y1XiXcfLzadrGmJXCws5JX96on8QL6z1fYANxmGnWxVFMOFmLWbKPeOtMw0gRlWMlSWWkkCGILFTHh5UPsaw3K/VgdRGMH5iteajKfXYhYcHOHPKO6Kl0+YenQStvJVyJJjGz5PaB6O794zpJlw81pAJ0S9HQXUfR0ooqzLVL5VkQa+XocMACyd/qGxOa26x6H4X0T35MUjR3syHGDXWxl4l+2lS+uZIZnUVkUIXCdEMy69BYxNKETkJDKqYl0HsA5denK8uMuPIFMSYzAdfDOsE3aNaX+cNpyL/iHIwvuX6J98fGhgFWWexcqWkDW+G0osvAznUrGzWDoJqbntooFS+GvPPuS3eQdT1eL3d7qbVtqOB/iPvAcnJ1a8vU5DMnMapPMlrm7orqNcfpRgkzRhetvZyPSi0oeNSTHIwYrvhWW67y4ZVNagaSK2ZDyRlQ30euDTBeyNCN68D3Lwz/bAfsf8zGuu26pDn1DzTMHRiwA/WxbWY3P9u/M+S5v246uHoSt0g1DaDLZPnOOKJhLuKgecyPrAbsUfFBOC5Lg8whlRAqZZoS8PiBsrIkUEh32ARRJVM6q5LhYyOYoC+dZW3j4g5E2Ip0tE1kWHqMadLnvXukbuQiIg16wxgl39xbLCzkUKWB7qkjATbLdBoUwlU2Vxr/4p+X/kWiEjGecDWyjd48JT625L198XtfX9EwXF7GVtfglmSi2urKkI+lk1PM2qmVx8ALJTG8LL95xRd3/qXyXwgpj/1CowbrOFqfqdJ22cNQamYuZdZ7Y1w5AM9t6b2qdnv8bmDEuJUQNy0Nk4V9AnkTbeTSu1fp348Z99jAzZ+Qi8hEV2zuIo7EXErBmUrhj7+NtppKP777WvTqhXCgM01jToqAYJKgVIyojFZxLFoIq1+SaLFhcjGwtQbtj/wA1dxVQk7o8WfdqvLxlWQ//7s2rGQaIjZWN0zOg5ifMOrV2peZJT0u01HnbPwswXtWiioo4s/fsbLE58YBUXnJIkB4SklDyFGh0n6CHaklwwzYFaNMd0VZKs4qtbIj5+hBKaJPUCxUJdl8GtSErWfkt/sVhbsw/FS2sagWRV1Mtl0Fk/3xIjmwMJ8cZkfijOQXjpUZ5KuAF6e9tdMoLDpGfeImf1d6Q8PB+OSGWejI2c3JuNCtJm+bFQBbZLSqrZOL5cwPUR1IKCg9b0VXndLOe7qm9aHUNj4yYwS+VF51ZDLfQyVsiEvcST2bYegCRPLTG0xi5h6awxOKMjT8N2JZL02GvEuO2RFJ8CwgLRMbAnj9lWO1mJmzgGSAZmn1sauGIk67MyR3/cy86RmvIvM3dGppohhpP8K8qpu6p+ruCED43XT8X8eiJz+NsY+FslM4+k5YOXwrs778POnhQwVJ6Dz/XI/x9y7JTowNH76G5xwsGJVNjE4zzD4ORRVzhs8bEZkdxR4+CtiCYr1VynXZamtbZIsDkbT2tm/Ob4mLYN30/HJSYc+ktkRc6qi8z7tRQ0eR3G3cXJE4+SAuBrqMQiIoQgx68SnSjPp0aOUJOzu8Ae0k/okFTnpG3GCh8K0axHxQEMK2z4jHUtIPa90JjlcBGMpc7bxWRq4PkXqzl2U5aY935Mg983SORB9f9EFsIwH6lLpKp2HyISxRjVefRfX4SfiSldXJYm9RMdvE+YzwCd1rlI2emCo7pwRyoi2K6NzsMIa0jjHvkOwhwYHqs4PnsM7yTAbRbwD2qVW9qvuPX73YdJzdakc6/sn4d8ftfm/dJcxyoZwb/akwD7L5nIuFavhH/SBgZI8xymiH+4RbzPWt9HbGOL/J/WtBV2u+ZceAYz4raR2nPR3M5cwGKnngGNvoZmU5iYv8Ouo677YgOAv1V5k4gFMCB5VXa6Y5Bn26C1/U1pbeD9UcBpetcGKnGNuG987m0/xIEHRR61AZgQK+F+4IsBYcco3CAomO13dJCm8kDhW/KStazQgU3d4Iw5brB48oQXwuxwf6LpA+e8Vzgtw9VBuTBL0r5nhBD5iG7kVYBqadM8O2HkJTM4ATGuSXNb6kvgKXc4MVq9gjLIlidWb+Zmkh0cRj25SUnDSd3fFh8gWUEK0rJL6VkxTn8kp8mSv8TGFa/6vRt/ThdqfS1ShZI2FAk2s0xPqhq/NnGZE7JJZ796AnXVSooW+4Jx1elHrQRZI5Vlb+FHtE+kUsh0UxfUfLQfJ7XtMw1rY3L4k+K0H5S7C9qPLKgXK+JqHYBQzlZVX+ZFpQLdhNYrPthnqMOUjkW2stj9ijccaZFHXQt347bmHSDaduXAKYFPAQtq3eKOuNVetP7dtSdwOBC0sD5nEa9RSIIASPxW1Mrp5lDhkb6R1/Jzk6//ePYpVZStS2YrQS5XaFTuirYKFHLSoEEtQNY0qVWP2X9OsahNWIdAlqhhVeMaZa1OrgO4ZRyEJM25F/SFRdUfMUx4bLThJRgSPb68Vs2EbwfNSE7WCAT1IfKO2O/KJWHYiPp0/PCJXqMxkhlHZ5YRC0+PWDAF3ka2VYCBN74GHj0KUuXX8TtEzcZJEkAAhwSnSBk5IG97jgtHNW2B2uDcaha8ayUpD2XPfLxDO1SKBGDbi6/fc1J8mQPzKKxTiBG1gmOrqXLtFE+zCOdSOGCrO+AefL+xFcNYqUB4hiELbWtJLT8Jz0HF4Y6IelDDGLIuR5WKthGAe9hRnzBGH7QFIudm/ofJmmnXEB4HsvM9y4ZrAic8u5vw4/viy3BGvThSeex/9whAyX/rk3HQt7mvv6O4m5fvFWe+Hcnjl/b/0xwg2fV1MHRcW6SOztMYfnHGxHR5LldLKdVxz0TBWNSnGxkVzBb4zy+9h5Te5eGBI8xpnbyZp+yYNzfrUw6HeC6g7GqUm4wheoh0jhaCMIbmtvZIyUapAj0tR/P/72LGLtvqdScjwK0KDTk878mMGv5X1Gn+nDq9u/r5pg4glLgnSeSTVaFXtgTgKX+SmeVJEogV5iZzmUNk3s1l/9bD/v7wQO+NJRtmDwgUwWaG19HqDBR/zptlhR3N9U6afGJWirLZFAKftyN85RCd2n5As/bNviCxe2jb2Tet0Dfb+hjSZbTkmKJaaVTrYC4rvSEeQeyjXAJche8CEOLPIr+djHZ7+PKqzLIJEQIcKn9R0BbwOvecBYTCn+8VjTUXP6MFTdA103qXLF1HLSvI96ZZ6iTrOekH1fWuTaLeSykOW3zBJMi1vdsnffTwPPmj2yYzm07WhgdYbrSsBq4tckODkLYKccUKaDaj6E/yRqEiOrZZkT/HbFCU8fR6cGX+LTGmIuJVKV3kpQ7iDt3vsaWr2eEUU7U+SXsaFJ6FMX5oF8Ox1ahuLS/4f6++4RDDviGWDwQjLLySgQIYf3ER38rN+faP3yUWaUsxzdoJnjbAvekjNzVu3c8bEI0Ege7Qz4kBQJyDASnajfKO1TR4DM1p6q5Sy/DhZEGEZpxVXRkKxnp9Z6z2Uy9mFNlf9ikTcXiVbmT/xPiOemJWDcO8UaSUUtjrTKJPTUmT11dY0G0NEt9fVJ092bso3Fs1rcIXGgZun1vRxcFzJW4eTh/+vIpVSYx/AuSdgv97kQE8uGAY8ocHU8iQH8C9ve4eQk/5gLpsr1999cEwbnbNhgRWBRAttRZLhkN7fxWoqFzNn9BzVLn1gM18sAZD0PxIQJ6clTp12M9D+2r0sYHllFi+dxc4E/PViixhrDWEd5jlgG1JfowzhT7yac2fMMVGF7bT5XilUWsZxsxz7XZDsv8RJPfRID6CA844FaN15xANxO8Gs9/cpR4HfouH79PQL75tZy5iW6WU6+sSNS5WLqnw29xOyzvumxaDmjggYRRwkousnhnaY8t75dfmvJK2QsbvZTIZcBm/NPjnYylCxIdteB37e84bsHn15PuBbD5Wo8PTd+dpcSzyyuJzgjtezIxmxXBskj3+iqen88Ul2dzUOVrjs5tqtEU4dVB/aWROvTHbAD6w+IjgcTfi2CRdaFDqjEaaSfMlAcp0PkZ4NKpU62BliYy+2MbbAi9g/0bPT0KJQOM4BjUIpm7gn9OqoDbvRmZ4Kn0LsOLCy5ol7oOPEkFiarFo9Fj5bwYi/KbG8BZ5I4q9bfz99MhQ7fcdohahlxRfy9OXyQTMwXcJNxfkwnZ+8eZwMg4yFWCfRfCk8RE5W95/UmkLFOK0BUvGjjhtWJcYVxVHqfdY/cE34LqdaiEQ6yVnXvack3NC4tZBt4Ez33gmWGCfjxWfjljyYknD742Q6ssd9De6jjytaEVePGJ8rBZ/AINN/SOO25SstE57h/AvpBm8XJu/zSVJfNZN+CyOHE+UgGbKxnzmJrkL2coq1WU7tqdaEcEOCYK82buS0ANZ8jBo1DzvEE9W1dZbqXiXtedyg3R3ep09EwQ+mM3GcdFTyBH/tkKa2dN5IFNp56Wj3ld8ARfNsjVTpTwiRhCQ/CJXyc8CJ3w/U794pmLHw0HUPeRG2G16CUehpNiTcRyYyQVrzZTP7RFrisw5WPGmEgFDmsOizjBZOqlXvKPP+GMsdvZWBgXd9nlGyKHKwSHZ5Tv0PwKyt+tK7JKai2T//yaPFVfKYOw6eI7fCLHYLDCbQ6n6gnVx21/ez5eQNJUoycXJeEaq7M7NMlmOtaj27LydNZKpg5lb6KK5lkI+sktIrjiKdTB2lvweF7NXTp47Me9/bDdT1MYf5CqGJfmalhLD3mJ4hpuzeFoDjOqQTFXg7Vh/edQKZPInUY+FdBcLp0PNZz7ghSMxTifi52EMuYEmqFPREjVG1pvuMgncEdlCYN/3FH5sTG06bNGEq9Y2LLT0A6Ezucx5lx6xboYCsknDuL0QhK1fJONdytIbaB0MOUzMvsIBqlCuZDVGVrMfHbIv7guXQGBgtUipauDTfaczxE9zN28IEmLmCO0a16M5rUI8NBtGzD3tVKCdtUDpTA2CwuGuLc3SRfjOzojrJL2tEFXAtAm9GzAPl9D+hQ8WTMjpC4xOaJRxiBgwpZky0go5qmY2nMiQd2a/uwpCugiMP8SiNVHXTcEgPulsZsL3gQlrSLIxNLcRU4lg0sazwNV4utwgiPA52rYD+jjBcny1/DcxBZUybvhpkdQYv9Bf0KLaH6SdDdag8xJIi3tyXX4tenDOQYlySwNxM6GuVXQsOhZN8uoh/RJnJz7MgIn6PzeUjSWTMP4pkGVfN6YluDVuaxuuCjcQNvDPrgoJIBgk2IL41UOZT0hDgCZAOt/da/1EXZSJxWwouEu5DS/23nP1lv0LYQ2I22927FyutWQ3q2yPLFNch0qqPApJnzLOYEbnzEWdh2zs16eL2RrYejdwonaCLVXFTDAf5x5PrrY171l9v7ZE3uHAew33q7fWtjpvtXWd2rMcmFJZRHZl3CqvEq3V7t5UulaRhHuyLWJtoVWr3eaFwbybOfO9WB8WM2jqNXSYlSG9fNwc9EFyJnJsTdqyd70bXeS+UuDRtYCXt0hHdAk1TRX5tjHNKD9PILBdivWOhq9sePkmF0qd4mGhz5ImyjxWWSbCB2ULxw9cUf5gaQlRNd1TMPa0TMooanJRygdpQvroIlDjAQx3Neid36gwfPYe41CerGX1KTqGHQDd/cFosFkfSNQQgV/j8fzy1PLRrtId8GI4X/jS0qrDxSt3AthuawpIzp6Rb1MN6zXKsCwU1kzrPcAtzIqV5p9DZs4wrxhzHq3HLDaEMxrS7MhOZeM4m5AILA7QUKZqHZdZ9rDhYWopflnZ2nkkMzx3h4uT/QZ7leaw9j/kMnW1IWfaPbPOQNcAXifiF81sIFZ1FuF3QZKM/uB+BQ7VrGiQRyY6MGCvUelHfgHTSvoe19KD0aXFal7KeqlBWGtMqv2H9JSZk6LorTfPB5RkzMd1W6SM1hJUgcmR+ZtW09RQKv0hCdGUb2rD1eZkgfelE13RE3qMS9/F9LL+ciNHOcD8WWyQpgRtrZ61PqkaC5DXf3nLxpox0sEwIaVxM/4NpRdDfUGhZeyICdpKG51V7rVR97st17CS+u5EWWTGozguh/78pqdVTznxblluviFIfsJvjOoR7rNOzVNFhN8YBKWGWDEfGMA4bicCH23GcJy11dIDuNk1d8fx7YbJVX7808e7xxM3RFyUkVmeW5SDgyMGxUUdchRqPKvYd/QCluY3f8q0iZv3KQIj6SrWVvcU+/NlZ9hbFnz11w4xKNtcx1QeOZNbLmOganIWGbb4hKpUJDc4JT8mTE+O7AYjvrO5WBP7fnUbhYgLIhqT888kUy04FE3o6JebocOmg5QJUBL7cuyfhF9nvojzNi3EqOZbTYI7lvukMItpKnFisOCaS98ZeAqxnAJbyVeFzcgfzQ9wGqprfYw3RnLCeoEjHQ0F3Yyduj6u9X++/ugknCZVk8LGxi09QEKe5dRNCiOJIQ4VWK5Xb0Iy/KIidHmSYhEJFmyauWgmiTr2aVk5S+25Qb4mXUPT+utNlfRfLZL+YUoOPUr+yw/xH3PYHCcuktjx514yxFly/+BdOsjR8MMkPfXGbk5TJXR5wQ0DSTWcv01iaS9Z+JdahoGVHXcPOxcCbX81slVZvJf3TBOvUkAr8tYcxq0WlapI7j1FpVitsjLTY/4e8x/EIa1w6oZjrK5o5A+Zi46YYaj1gVkcuB7zpYRV5ZmTUGg4GZ9Uo113hFEKvg0j0/vzzenCdm0YvhtwMPEqHMxVis1lkBYBhPSVmxk58iB9nbhQtDVIl/RzoOVbczSvPoqOMVzR84NC+alPjlnVycBX/+HgTCMgIbIi3AVB3iY9OOk7mAMh6+6vbokdCk2QjMd/AhfINfEXPnKAuUM9l4o3/pOKJxP4xJ6i636qd5ct4IeBcwCDj3LXggz3c76JMtE+GyBU8+nGm26Kpsek7+bxZiK58VRM52zRpSFT7oYbDZHpb018iKtiOXR0FQ1L2AGRQPJDvpnsB/Houb3rp2s2m30kiRjsCYOAMjfBkUEqXlOEmI0SCLJugYH0NdEX/y/UpBMD4keF6YjeylVuSEfEXEa7KptkXFQ7GJOtobO8O1Uw0Z5eERuS9Tk6GqFCT+Z2TqxyUJrE+wkgJRGzCgBGK+QJxata6dlxgugWPNf0df7KReq9uE0fdOcxkEB8XEq+iGR97ORkJzYAIUKILa/r86xzu4kcPA1d9LupESTt+cksEO71G53MQlYshzW1R2TUbO7+iYq6A9PVSzzU5aep7n2OXWa2xi7mKu3LON6JKIUi0CiSBIJg/Zem0ibw11UTAG7e0AUi+JeGwxIQC/8db4bpzTncxVkvL292fg+stAxhL5VGoxPgTrFdaNeNTjR/6f3ZVLjs02MJ+5KPnmTM74PmQ3ZY6JCvzzXBYncpK+K4R7KCkb4FM9ATh1b2SUWPDAxGnWf1QCvF9vXfMsDaHDvNM+q4j1/6yYzj4b3X4yYs1psBSuRxWnX2CvOCqkUJwxdJGBNxqv3U8YMOuBkIxWFqCqPFc6+8rUZnxTnNCxO5H9FGfTVjNDN92OICW95FAR9jGwAWEvZCjPG6Rxa8eH9U4Lk/Wb2Bkd81JObGu2p/dBOoxY5g1reu1DrY2faviweqHRyHD89MUlmCxAngYhxk/KVif8AeFaRLg71B2ClkZmUpPeTF3h2NgCMOyqq6LC+VA8aX6jv2PZIJHZSVaz7NEfAD+SrqkgGBjhbL/JMIRjq+cAXvPr+9CG1+lE4fMk1NMc1XkIJnHIneazpRaUP5aC8IOw/fAWnNKK/g3mCyWH0sUNrkUb0kMu9CQ05NRTCsGpnqaACRfc5ekTwDlmL4XTEs4CQHhEERU7Q03tnQA5yhGxDMfHfTwZqYexK+vO0N/AXTVpQEcvRzZJNSt+FqAqyZzSTvpjQa+r5Bjcs00NSYVwF5r1gRop1n/Yg9Rt/9KsM2ufnBGoLnDR4bM72u+FLkZh75HfGskhz3PxAJbngVCu1net/EJkpxMZTDK20+TwULzsQWFVbM/OuDOByn4Byiacu3yNF8oU2yHViysVz7JdW9SvEnlFzL5r9aHLdYnTyv+hdroPcLXeoRCcIqBTzhu+MpndkoMUM+OQeGSQRB8oVs6z0rD9CrZk1+FjBiCHPdQlpEhAnpC5vOV3FLuS3Mv+qQmESonzgyoopXos2sbHYGUKzJuWNlpifXKmdPslmF6LZVHxF+1xsByuvciY/WwSx0IEybRhT+lrrkImcb5dPXn/rWJ3HjfnZb5FYGx92cKxHHH+gosA3qJKvkJUbF2++z/o+mkDj5Ko4n69Lq2zaivyWYQLekRenogfZN7FVfYpjELVg1tirxv5n44hHPKrIJR9m8Cxe8M0DTbamwuY5mzpJzaEwiSi6rGkVn+MR78uh3h8FWeLMqsC1W2jkrPOQpQ+faTk/l9A977ww8pN5hqD/FL9hXrNwfWiRR0tkinhCuF7yN64e8lBEiSlsZgbFJ3V5hnzYWNVU/c14gsFgiu4Eu8YP0j7McLCkitb8A7hpMRwlpSkUTSxbRkg+1Kr04+xovhpCwmY/bsZQ6Jt7bZUNWiUMLHUvPdOFjLf32NO40+tVp6z7c+/3wggNIAzvMMe1/MArQ+aOtiFz9fn7A3xnn/AAmPvPMRFYYVXnFa8nOfuUdRh7WQ7eWTp0wmQvhBiQna0T/mBTTyqk8J5VLxhKWiTddGztcwtbFeCyk0lUzcq0Rlq6pgtsjSEbN5uKirTS0/K4n+LD7tjQCwQ+xTUM9zyamzY49XV85qn6ISFmF8gDUAauWvc/2WNDRcFkMz0hcmS7o9yvq0luM5QGQb7Cz2zRGOcIiOnRFrwpNdOBfuagCzIMdfOrKr8GDVAE1v/cQdS/ObGn0/vw5UpR3gdteRy5BHyKXO8TfHm4PnMmgDBj9fZLgV6Cp9qS1EbKb2pkqT8B4PzDViJifsy41CeAc8xPaaaYJHs2j4kqHFmbyYkPANxdmvIUjxWIn1ba6g6dlXZLbQIa8cvFwXP7G4id9/XpF8C2EfRCBZkCYpCBm9S0AAA44je1pBRPGqW6kUJLFoSCGrpSR7CJuoB9ySPmGP7Y6iIcEBUIZn9TasdU/ArrpBouGchKaV7hktblUqZpstpvBK+9gij4sFTp/pt4grWHr1foy11ywFxygUPsi2sy58RqNWA8nn/sZnLpky5q274hrnksOq63OlInoNU7dlM7NHag72Aq60+9XpPi4RLOiSItKE3TW/4YXlHE6uMfMg428ojwSVK6yFQA/5Tt775ShCBeQg6OVq9Cc93WnAIBIWXePTRRX/YdM+95JIYHtk8BCW0vTQpoD0VWpoaZocUBysh1BjfUxQJLnVNtRESmVi2lK59VeRWJ9CxJ7X0HjU2bWBUd7n7py3+OEdWWfrg5JH5ayykvENdnbnS3XMpSYgUkIeYg/fUKYWsI+rOVKZpgYQIx1S6m3UG8Ja+AV1+y7Gmpm0db2M+iiQKIqlRvAJVmI/uZXWC0TC94PkeKu6PTYQlypfHu9H89Cx4u4O2wTRkVlAMaTGXFXVN2IWdcJ2rmFHBkvIykBkbTwQHB0raKxZ8dcnWj6P4MaL9ACegCUxhS8PCGjHANHOeCOG9UmfBfdSM1fET1Ajxv7WFC7xwOBf+qu04dDA8khnS4R2fVnw7kbI4zhcnP8VMEJdWrV1o+jLsXmCJ2dvaHe9eMJ0avNk2QYXUFLf0VxD+5p9Y2MKfk2GBhx8/eV6B9HCNRagazRy3WP5qRMCvPhhO70VdiH2/kTMCtANUNia2fTW5Sy5RcbBJNfjHJjSlesU6DxBZGmaJvAhcgjY6j2OLNn8imNWow0YRM189FA379pKkHWSmFELHUW4tn9Cpns7ldtBkNUjwH11q2j186Tj91z897k8St5rJClG5hgpCRZSi2xuaS/AA6CW5EJK7iI6RxH8rFpPTJfE76VscVYYFLxEvPT8iVa9PV0J2Wb1W96s50gaeIFhnDW0ErVpFxr8GnAuVpPqoS3xgNuF4bxocBeWlBozp2sQuohvGCciCeR9k2GV0LhmbZLcct5s3dymFrbICfj2Pl4jGKtlLdQ/Vjz/8i8/tiSuEMDmxL0MITgDlhM5eHoxjxh8MB7/QJ1G4FdiTqkTkQFKGVD9ItIJZw/NCm1gomNZMfZ8kxvA9U88sC+KQzF1ajScRZYSg1rfWXe0tN8MPKE/pZXW4DEFvpfAD+hW210itdwIUg0cp5lQzAHbjIXEvFkCf4Yz7DRXzVnynnv32yOABrmOIGadWjTdQLOu+l454eENTf/NOrEbxgAaN7h0o5fACh0C9odVypE4ayWDIysFM43+Wlxm36yy9BtvUqQbzZu6ml+rnLF3ytIAPHLPorUdTA3JQq/zag8+dbNqC36TK3U12teZVQyaGfz+XEqwudu0gwE14wPEIDlXt2ABLwX0+QG8AK4PvwzehPnQRYP57gQ/6/ctgZ1mOhq0usm3xt/JCoxJtLa4X7K5PkCoXK+mEdsEF70HoZ9drs8gOcAnOBfTZ1mDYqRKtt6/8BnL7nm1weNMysALMEseqVWMCH2WO9/M1FywWQ/V7yLvyvUsIqkzbyQ/aacm9KETLLn14qNXVcwbHjbZtbDAPOzR300VAh9qlkCLtS42XHfgpgnz1QcvvL/WO/VXDA9aMtkl9lu3iy8Zgu1/y8BAzznhJ1G/Vy6vKO2FtSwD0lxiarWvX/5ZB1zvbDX6A4eAZnX2N/wbQ2U7S+ebOFDBhYL46yyurt0MKOol2/C2bt0hhGXTrUoqFk4kTyce4H0SGTUvvLxERiV4IxbVSdttFdIOcLlKhIpj6uC9O07Ngn2ZUpZMPJloNEvduAMif8CkwUvD78uZXIfNd6yrRqmm/TmHfI3H4YWYGP/b/4z8T0yzda+RTjF/fLurMSyoW6ltIQBnSuPeWIX8lG8GHU2chYTn4LQ4qrVhEZJoa/k0Ah2ydLBMGiowp/Bbqm0TnA5aLzXUbfPnWsCCw/dUoMY3CIrpa02xFO62Q2nmuJSBazyF6ttvA20RsEKACM0DpvF8XTglvsTLo+KO5wCX6SBr5zF2xS14bJ7z8auwURADuZXWV08jEYvGZuF3ecRFc6ZBZI88EkPPrN9viH7ntLcnUa9nudzne4H8seVk6yWNYKvNKo8peBR4XiEgAQYH0CIqOjIA9Zr5uyCPm8qCOBBZKXg8LggK1Wov2WQvqc/a0JgGLbHTkzaQyLfWSB81xGmBhi+40I5z5Ed2h23TKlTpifrtpOlqddOk8QdJ22eCCAEvC6Gooz366tkW7LLEYnQCzHsikQ40Nl9fAPxAP6gTBtNg1vw0Wh8rAAtcwBsq9cyU+3CGN3bCu31mzwqgDRLguCB0WZL3wMU0/QsblCuiKTFfK7EO0gTezaiC9jxi8OJRhY93iqY+vDhKDzqaWpYHjEQspqWsYkeZfAQyLFbbO6TeJSpJ5cSWdalRt2v7DlHobctpgrsFmhu6SMLEK9Vyd9RZbWMh+CjUg7vrHVhyvFepMg5tIn1endmIkxkw9+4KifMZH5kzfDl3B4/YOl2+TpHrxXiQHjb+qWJIkwSlUuXN4P0mSKHHC3vL+3OBapaOM0cL8LXEAogP8daPrrkYfIPdgwS2ioKkb7wlag7Z0BGPEfavlVFPEX/MvsMVWTV6kEVN1q+QHbHxb8jaEOGSBt0xdkQwkrgt02O0rjbej1OQkRVwHaXMcS5mhgnJ0ATVgFGk4a/KpQ9m9zeSVe8tiVbRwp34Da9ARofLAoZguJ3Yf1/tODrceaLSa6OCJg+mwZ3RpWM11nYqB0cs3vVARlWpeTFc9yYB+ZHKtnowzxotI/dEPaIjXTG487lpEuCFLP2UByTQ5rVrbhHTQks4CVGrs09QlLfbEIz944ORsiegZD0fBXpUk6uSTEysih0hdUsDsypKsvBnlbb3v7hjYy2hgCQouE4m6ESIoA+qDG6Ce99Wp2RtGZYRKQqpHYMEV5oI01kQ5OT3x/vrsOK/wFbQeQfxAA+o62TYyQ1liy8RRaUFCL+HBSduI+F8M6yWecBfjW8QrVN0ND92VIbh4dfW60gPKSLQ03rPFtNnoCtmQDirBDWA5BAE1C4tgxf1UPCQx56D8J2nUEZKNOhyBAAAck/rM+Y0zZ+aJ5J2FC7u2nytdPlGwWpb27o59QgAAFQFsPEXuXWKjtEqMlemf/0Pe0puv+XcElzew2MbcJ4IAdmaFy3bvh6ZaqyPkKuyD3zQ/VzqAVz8FoI3opQkAkV+roax1dj8Ge1rak6eGYAq5JiZ5TIJqU2Nh5wfKzAHyVACdQatJ9Xf1vA9RmLXKO0KknISCFJjUgfg/1H2kZCrAnCA8+WlsHNKpvK2qXcAO8OFsD3RagC/3Q5Ld3fCx+dkTq0QWFkD4WSBrMCLJIz18rQm6Wbwc1tvGqQkziaEreYPjvukGin7OSeEcl01Id1YT/MRmEgAxp3OnFwXjAgRXkx+q+qLfBDfuvF/Q3q9xyM9goxE3Tg6L9erGclQLdpY8kC4gf4m8jmKXJT3wieArQYT5dYAqzL+xDG105ZxhCx4CCmCTrNvBS4B4v+mhYh04lK5gVneoyDRgedgdtGgxg4OXkWswLxWImmDAzUIe1ff7yG/AHQdUGBaGJ7Z1STApCAdSSgS06MLnGprC28HAq8k0p0lTghsaEHUhQkY/YZMQvEIWKNkM4dLhj9teVygBI22PyJpjT6VL/ixfqGpjMzVanLt5MyDewe9Fm75Z5lXpkfBAsaZzDLvnO+EC66QBNdhNbLmD8Ii+6L4Wttcd3ddkT+FAW/6s7lhTrfNhQI547IDOAw3QBRuoL+JEJwxCADlcGo88E/OripWG3ZNuM9IbnBOMLbB3OGYoMAAjWeyGYMRYQjBJ1shJ4+GYA/Xga6m0Yw1a7WNPoGlTlpD9JYZ1zW0JrcWS+1QUEad2acyyDPo1QeE//dcbtYdOiUTMX0iCQQbBtawRYoLvF+FD99ykI2rNl2EsK2cZPSrwC0Ds9D7AQyr7i1VqgUEUzAmi/ycCfrneB8yOy0hxt4nNQRyUrFiYR3ZGVtkQ8E0DGkQuxhhRxcacyqPx38mbz4cMTReu+z4Ey09o+cjE+f+iWv/7ZWdGKdWlWOwX3JbhOSpBT63fer/xsw7nYSYWlyA+wN8wGil+VsTKkMxGb+3uJew5Kd7E+nxB2ZDEUKmjc/wXtGJCT02RXrYFltmEvHt0TACJDP1VmXnghGGPIP1jKID1oUvE6ajJPyZDTEFNaZmrmhwl6h7T1q4a6kJqLrhaCTNmh1mHAfe/DPBw9WgLruS3b7AnAQIGF9TK02J5/eg7TyeNXtNLTdZU3OZ1TpuOdh0O2ZgayonHmHF7DtBoe0vOjzyKHFeUV33CkDwsFkXUIZaCpLGqzUtv+qrpE8VgAlGDCP5NZ8NqZuskAuGxtRqx2X+ZX8BZoFjNht5mpQOY6YxhQdkSMehB76yoY7f54pNbEMkTkwmmALqR676iLqIUaTRwAAfVwTHtla7rUnmy5iIDMhJBtaIS7SiF/5RexyH4YALcTKQRHuuQASIgCCmlbbQLP/TriXSRETCWseGL4dlp2YzH8XJJpb1nxgOf1jOxWwD24H+zKDXiPoM840J8dlwOfL+EtiDfwhTun6r3Xq6DijrIbn9YGhTAxn3VbNdQwlB//BfvfZMOjzF/kuS6H1PyFa5EXkSADo7KfsPmfJXSd3O/58XnfN0kcNyiTRnqcMrTAXXDW6mKCQgCgxA/a33xCHbQLdXVlVZcsiComXp3YUGV1kWvMjJg5OeLL6+E17VfXg4Ikgthj/QJnVXOpQ6/p3ysP1sJhuVb+GX1B24PxIbkL97RZEpL/SCg9yEKPvFidgsRaaAFQL4UkU87fofhpee/7XarI6Uj88Pa4RUavKfvKLqr+PDALSGvDpyDV6MqhOXbARd38t5D7RF9u+mj7WfJQuEf/uPNvTD2wnRXSZp+S5+TdFdrVsx4WOXw06eXzzaHdWhCPRwbVYfgNSkkWuMcQIZwK6YkICZyIyDoVGTXn3ZcBKIgfAHZy+li6rP/eotarUGX6VP+6XduZ3JwVsYi21WE5rsplt1z0HgvMXbrV+C5Zx5WCw1z5M602FwwA/FO1h3BhY1sYmsuEP3/7kqL4scrJH4Q4Tkxq31s8PcY2uP6Mpq5f4/X9IfOO3AYPo8YaTbUt6NE42roCo/yzHFIHqL9UKlxWbNgKXN2XSuXqp0/76A1QHaGQbdoAMNNb5nNYbRQgYnsUQEogBvugAoxRpGBS71bpWm0ADyerRUhSGD644H1VKEBgXJLkTunsLrduzmKVDZfrD0wH45h9kXgvOuGo5p3k6YSPI1mzUkP4g66UXaW8RbaHkFeslVh+G2KtnFfPEn/N1Zj3Z0jTMFJuKknFKYMN4JWKG4A+u5LxzYDG7mBo6er5kdCseRlEysnAcsIr75vWa8JIoHMmsSi+daO1C+QBF+OG7FEuziNCWQB4V00K2JvOatdae5fdCwuMhzVn6o1UJXCR9ybNEiZJnbUOax4PXhds78pa2ZwI21XKE48oCfgMacSi/S8pRgti5CSfzQR/IddK2ko6Wvw+ipwJ5ElFH7Wt1FQH4d5KW04s9t1BSNJCZ31uKowCZZbrnNeEtU4YIKuTt6/fLjXzosyAIXaedEcmsvdeyHhsOzPjqDP58mhhuOJmTOsWv1XhWJ9Dp3456Xuq/YargZtoVfJq+0WR/EUPPFyUq9t53VU7DwNdw7STw0qia2ZWBxmp8dPPhlHbWQPEyngNLmPV8B8th7XNZxzcqWAyOYVekmR+jocE05hBmGNIIppBPMLOpiOSMam6M0YTa1tTyPgFwOYLbkrDq/28OMAxJFL6Z/Js8+YNABJCr10Na1SENX1VOW3ROCdoAgbXr3VqvMEHEI2L+uXWHOEDwZhtLBj9yLlnwCZW7gTlAG0/OTF9/W2kl2OaO/EXQePrKNsWD3E4iGvtuJJEoFfLMgJWzGA8VCZtTmfZNIFvktqxAUC87YGDGdghDEWuT/qPY8hYp8aILbFoYSX9YcYgKlGfaAteALdetOooCjLEP5N/l/wg/vkdvCI08XTOYRXkBXZyXNgdKtIVwvZ8ZJWhbbVS2MQwoc2Ou/+N2ah9XVHvDA82UXAAIOS6M3bX4B6QmdYtFxqftWDwdS2VB3MnvS+7AAAEvHOAp1g3ZfPukgiRh8mD+1RYZNPG6inR3WYzzOCldn/v9UuKAKR/RaAXo4VYODOobNmQS8EgyMzElAm6Y8PhDjrQRTzzsOR5Fd1IlU5L8S+tDwqZUQOOHg0TzG0bAa+Eva6X3q76DiYY0ot8mf2UPacA7WNnnkVFelb/nw9GR1buFQbWVO3jSX431XxiSBQBG6lr8AYHqV+C5JGiNQcT262OZ0lEXmfpHlcplMnD9akgUI/7Q75k0f3pT/PeW+FjUoVNkcUGACq7VNwFYh8rUzyuNLdsgdXy7SQjfJs/ohEaZhOWxveIMR3sPeMIVBRX32s6KyHpgu07hFS/uhHkztjoa86iR9FwUNCoFfmTyCvY7HOXJ28+LX0TJpZlpilS2gZu0Q93aBQTLPRPsLgf3wqqmQxSQh/+cxqo/g5X9d/BjlPu94GSriezB1l5htgk4RMmKmYt4Pzrd3wX8cCdiE+cLGJCpDurA+kTsuROmh66BfGAmGxp1VdojEEu6NOpalUd3LKzCtCXq9h/FfE8bv1sI+C9eiY938VEqiQL28dvfe0R7PsHhC/PMvJfa6OPzU80ZCLu8YzoggmB+3lwwqlumpE1XuhdZnpbmzR7OUHOX4uxoh+pX/0tilbJk0rmQItyLoxuqKmYXrnUam2vnZ0usRjdEqH+NxCM9tXyNyNl7FTYfFCQV98MqwfNwKNICQ5OEeL6JaCcBED5D+LzMxSRe5rg2QxE+C5+2K+PAYhluLoQlE6eU3sYnsQkokGj32ejAnXaUOuHlTJZnpB6kBXFV7If/fuarFVNiU7A3s4N8Aysbm7t7Nlqjyh+FoKw84njMbctA5wSpR2/U2vIWl1jF15jHT25dGpCfE6uBbVvYOdRA35lghz2dW7M/PfdEVGWgMRXo1Fropi6YW75Zv4jttAOczRnR3VBgrn3jxMt4DECqRkM27tj030CwAnkfA9mOZqwisoDbzEgr8/fw5xmhWAIaVSlFMlm4ZNWGyLPpNuS7+lA2Vn1TDW5qQQ9ptWvZaIAA3dMvgBCRQrbgV6FjLV+2w+5GyGlD4gAAAABX5gAqlzn7v7eJ3Y47vgU4kHWpehOB2W8FZLPCHvXB5F9t9mRizQgFK8i6dNYTSaryOKm5XEaZd2XuXZnIMIABN4tr8YB54DodUFGLPrM5P0rfi6s3fBQTuweRkTptliUl0FmLOI9/thWz+niDUnPOnxbq1S9HO2pPLy2+GoJMIIcHUw4NlFcOO2w6MG7A6YdvTMoLJqMies4GYVryCRvw5rzif/q6jJnjJAjPpoIP+TcyYqoC5gvOnvn2ZXMIRNy5p7TBiRmktG+xOALjzGGEODmFAXfAOLibrCxtw8d2AENE4mvo+s/HJi4K8hOZf1q2DZE3nxy4cg/nQ+6Lp+LeCZHMNAsqZS+m5ZZ7sCsuLoDcbImXS4/9UiUYDQ9IXd2nkVSs/Eew7+0uFKIbOzhQzSuzw2KGWAHDnvv/pwLkvfSVKXJcFNtIWYZlUud+X5L5gmxJwQ6OfwdrkxWS8BRAu4g/KKsCicbNLJ3/inMEjpkiv8GbAhJV/m3WT//7Csq9WEo2F4I+P4SHuxnYFD/N0i525mX5h1NDukTiyyGZ4q1FsJzaLLa/7NoRSsMrJze8lsZfujGg/hZ00PxMOg3IrQ/vYHn+LJoMka/7qCZ9U0LrBEbroRvBFzF+iLa9lkD2PB8WIXxfGd4bJ2aVG9yodYCt3/giWB9Phyy69NSItPX0o8G49xgiQ9vRo7bJ6HefGwep8tW8XVnjaMuJTX6bRFfPNbEKrRIBcr8a4V40MxCUG9jr7Oi6bsZrGAms8Tw/yyPPHZ/uMxHePQpj25dE7lI3W+GSX0bTdMZKOgRmM7aDXwA1WwALFVvyfDBSOY8Jn0mQgkFbQbU4J5zrmDYb+KRytLufDeX8jmjBciR1qbANEc7N4pwlaHb+SpC0bvWyLiDL28GKdJLEB4CeW+Z1oWWaw3nk+A+GK0hR2a9v5nFZuBkkpI7r260SCEzKxBo8vdInfiRbTN0tKySDLxb+PmV+VNdPcWst2NbV4O9boMwxgjH1aixfS4Zjcfu8Vwz+ur/bLTMX2s4GxpjbajyPhaCbEaHLz4W/NLzrRQBJalTVZ9/3vba1DxVcQt4AA7ZTngmdzPb+7g1gOPTJ7T9P3kk6e8L/4AAAAAnoZyFzSDnGugrcUlFWE65VX/56vOqZvzGxPEcw4ZSAusmAV6kD61k5lwDLZ5ansj3KcMlxA4zxehl+ASLi+IK/Q64LUlW/vlwOsaJtfwpysDLZt2SvdJCto4sW8yc2DIbuMwLwlt1qM/ZlwNmjGN8dfhS+OtSQHqZFWpu2mDen5ZqvMuZyCtVq6sTQelWdGPij/fJaJGLhc3mL48i73NlYpwr//p3wkoODHobHWG+x+JJ8xTzTDRe5UVr1gM7yT+vO5TNsOpzOxTBt7wzNdTlJbp1AFjkTCk2EC3cQ1SxWgAmnI1Eq3xzbfyBUZaGCQA/sj8xyH7hiOMlo13TN5t/SzXD1MD2poZYIAExyKp34kL164tMW0apVILJX+r1Gr4gxTBv+oP/pPWA/SWLTawx034j+njgd0Ac2H6cc5VBHxI4RHFLVAH6eEkFgVb18QuIbqzAElEV5diybGCiZfS+NfGd/JlPr3tWXSSOr39DYSaJNAV9UIF1B7g2YacfJ4/suINrrWuaOv5kZaeKQkpMXphfGjmkc5UADcFPvKTMDtH5lob8sRJ22IVk1c8XPkaKerihvvecajNGctd18aQHmKnZhx21V6RBVLQcuF8WbVVUqCR1VgBMpKxHo+7W4aSRYX3GWD2ICMaAV3Ymv4tDcf9COV3IeKfvBYTdTDPMsnzl5zORXJ7T4o+AU1WKxp1yvVEoF4cKSoWN+zkrV8kftmVVdmT9w4JIKMIyTakIF7/UEHshrL59mAlVOsW7fMRGRy463F+zM5HXrcZt0JNo/Re+AqvHKBJfIz8BmfhDhTfTwDl6G1gaglmBe/2ZAW1WYbVg0R9loVh9SY+1zIN7Hm0IB9v5+YZisDYEyvoATqNCvDLbOoJ/6RGl9gSnAtirp94Dw9IV7kftrArmFI68FwAAPTdcegKNIW8V+iJYRWsspIRyGx2SpptiSqQAAHyYNHYpaIRyPwexIEiGYFRujb6me/AA68R+vBZo7RbJR43QsC5wkQX3n5peCo3CQn21lq+dbeYqZ2hxn1kmIuMJKKMLc1T2280fUa17c68c8JdpdnENfIAfFdcAyR2SQMeOPdKViY5VH5OtPwggOaF2s79c40FewXAwI10zoZOFo4KiknCVDTEwE9Dt718vGH/Ynr/rgaJLbW+YZIuY2w7jmDcbVimAlTfrKXlt3TuAJn1ptvASNewSAP8C+g5NqZRHxDdp6FcImCfbfx1gsM73G5/UalguIY0r22sptOAHUCrLyiAtH7VVy4AgUkEEzw3WshAaVpTGCqRcSr589VBmSMK/z7oGvnMevVsW7XKU9xlu71Vw1QajNBne90PoiKT02wLmVPUeFFTGAe39IIFiHGZXNtaesvBGVX5bb8WxBjD0Tb+JpnW5FtDYgZIDVIUFV5ppgxSkG/ylYt0LglmRZaFoS86xCZt6qJJbr6ddNwZkN5qm7/nCJ9C+L/KV6yyong/09eR7yZKeNqIyIgi+/IXMg/FMjGyujbkQA+5w2w5oYCunrR5sYNx9GISB09bPLF1eAP86f5FesPpmfza1Ppj0gFBTAz2OMg/TkEAFUzHGf8UMWiRiF3+7R1+Scl3dxs477gM+uj5v/MAsqUS2yJbRQbmFiT9/G8FqNrEmAMV4Re9XCAViUnUJFzLTupomZEQZ6s0IypAtljZngLTGFAHGMQqJSQp1WFUV9Y5X2lfgvb2lnE4HIRxRbrSRkxUdZVl0ImcivJb0VAVKeCqcKnf/VIaeMVaYLG5bgg0kfXJ26a4Rx5D6VuV6duH8QdM8rmfygMzaU8GetjgAUOaCIewpIRGY+AWoStaEghYXZgAAAAWdISy76I9nXpbMjZvb6eNMjEeovSNUft5YSOzVtRHKlaaD741Y9LEdZfgRkSwDWDE3FqvverR+stKKqJmENvg96R7KjCcvt31gJG15uSMn5cnxxGOjk8g2M/M/HlScMFLZJWUr1VtkxOtV54AmzTR48Z24FLTYtK724SFqzT4+M61oHD7q0DNlwCiWft8bN4StfG0hIGk/eC8uClxGT9pdIk9JIgZFrZGU72RjVeGOq9q4aDgPBgvYghmk1q+SQpPCEB5EYdUtHOXhLDjKYGQZxq5hr3HHihjEJ9oCb9z9MnV4Fw66QsQfhy5yKC++2ZP/1WcOSBBCL1oMu6sNx5jdzNfXxlqDZR0qPwGl8OnYTAQpL5W1JnRVzQIcgq73W31lVtlqtOanAK4oEbZfwuxqyLg53zrEbLH+gvyqegLqxr0WpImajfE5gaDP4eygUidk/1kgBDwGcZzFOtuR7IoGOeBum3kSUs3W8zaZ31YgAK6mTPKXW0ClJbMtc6ddH/zkJlgDbooH/gbiflE4R6lmJhQpzoFimA8BvpWsrCJe5JiKkDLztlDiysWi4LwxLwctSHlKzfHVW5igugd//vABKoAR/jHc8K3N9ZKFGQdJuxkxenIIXivs2jQTwiuscnEOg8vp4WgGswQIxpsPdqDWyTxLouAXGHLCx/4rc6IW1V9Sy3DGki6Pz3+DFMm6VFAgmzZ+/kjFT32HxkyRqFEYNMIkDLoa6ET1vAzLohi9R58UjNVG41AU1uMbXuXzb4ferTQJKDGMYmzgNdVA11Gzi3XKof+iXowHAYzz1W8AC0mkv1x5oHjJH2oC6aJAuTvKRYJcAAAAxZLzojBWhsk8awoqkOOAXe9rGPTLEwdmOJeawPvOT9X8AKawN8uWFP0i4gBFy7lW/P8PywCJWR2PvwbK02wTnlWAOFl9SOnkbgubJuxKzAm1rgMYklyV2VX9TxmFdFPiJhdfSGyL0Goiw15yb25S5mOnUCx7IIyLFStgtvkPPRlMMC8kiiU6GDCemLPjh8bRd9/iTc0X/1bxY1RRrHXA5HutpKVsRJrtNd3eiMG17oAEASt6hwMQneYiehK09oxCtQ7O2pK3H/r4TXl0l2S65EOBnT+c7VuL7BMbQ/KcnSm6IvMBxQtf8bAoJEr7JkROAkHvwh3okE3uedXDX+lw2GMbI3UckPSt+zwGcfs8EL7IeFs0htNchokPGaECLRojQdaMtmn/JG/MKn5qq6iQbbPkRFYxPliRRFniX+fXNQ37my8+jg0rOqGcfVT6s9YeVAccMpxZWWnSQfjSrBEgS14dFXVCidCTB3jUssM6ogP+LqB3x03/Y3AY1A2ZA6nteDkI7lzqKNX9aNVl/jbueUBfC7KpqVvMLt8UjQikFitI3GPaDB8/t5XqG857thTVlsCBS7VAUO/N/4Gt1ZczApAVmmJ1NdTYgatpsl8AE3uswjr815FoSeqOKHjL92FY9djx1oxhFLlgh6WiYowNIts3YHTnks3SAdu/pFVRV9KwZCrlT9rmqroIEGQ9tjsz0irDtA267RQuiOIP/eM3HOFzEMDtaPmR/Yd6ec6CTr5vrVU7lkY70AXZ2c8Um/PPoxNHiNgmwBosYghoTEja/2SjnbXqJF8RAAOjPrVL7E5MKmkywnzaz7kFU8tAAAAF1eEgB11fsDUppBMCiHZDOIeAMMIv9/vVOmwfBsp0LKAxxjL04qWtvqvXyGWJwRpoX6UlGdWD0xZfqHhqkMhquOO6mT4seZ6FZZcMpd7bBQKYIfcBbD42lpvDV5G2A+ozdrxkVvqasRxqVJQw0Kk/z1slxNafaJ/yY6LM53PbXdNp+NCb8A1OAUG+nqlW91ZzJTawqnTw7wXCZkcer5AHSyikpsdhMyK4R5bwL4rp3ZL0BaVtmmBkCCrWJAtsyHXwNiNHoTcr8p4h3kvNnWl55DLIIkI4b5qUtRqLH9Nnt8Qtt+W7BUDhmRGWNcErf/NGnhP/Ss7Nr7dnB2vmG5zipV3eRO2lXanIrQSql/TNav+HDFxBHYcmdZKd8N0M1tdaXBrdkpF94KK7wyoYQNTnBPKchqulj0DkQpG+vM0Qlkcx917VgMZIuggVgykXfa0FU05eJA82Zq5pT6UdUqwnXP6e73JmC2XyRReWjDTwGNk0Qc3rXPy7nUc9QKcx2jT/p/HwPGf4jLiBPCpYvJrOgtD8I1FYqu3bn8iOM0hSHW6/jf3M5fuKsSTzQ0GrndAAb2uAnChcG3hT4JqwOChdYZGKLj4IDYCP5448G93jLS3BBXwpcXxzYifo23S+pDTmXLGEWti0dTcs5ooRYVze+PtK7Kcuj6dJrtPxiLJ5cLGiDlU7XDOQbxPaDUCXDQLzTw0G3/8a7v0ogyDvcgGwciEAACXPpNjCEfRqYndILLiJT4zCHcAAAAAzcyDal9RImGyXKuHKrt4KuxumZGAh3smNgAl3Cpnbaz8olosaPGuHPyIV6e1ETiUIDUjQeQ76k8EYClzvqCuSLiFu0bbpZdK6mDV3u4QtD4s+aihmk+OyjtA8uInW66YvXUwewdLxg/hmw/9pAxxBDxXWWJp53t/rhhVUghr9MTZMqcXecV8HZiS8cISuijhQgjWSLXgwsw8nJnX0O//NvTRoZgNpJNCV7d/rY3M1ZgSd+Sr/QgTPOY/P50xk3JKSKY8EiMH8g72Rw9z2/I8yuwtwxl8ym3bJ69e/lXAUlIrZguoJ29yzxqrXJX9DzQ5lMDJO9Qs+1BxfzcY1MzPBySptVLs8pxFk5rOfeFruwfhYEinqtdq0Dl/4+p7R6v2mBiBzUYjUPbl9PuqLokhFHv3hfGDZgJXqsbYsm6YniDEen7AzT81bKW96NqBgRm37wm9HOCAMnzHqgGrUbVtsSg35KTlSdt9hCieBQRy3z9eZ0305rFdDuZ3OPaMzMEPGFI/YvnBEqU0igAXrQpgKIoEbP10zI0E9MCKaqmKU2uTOTPzdYDIPn4jDwEVjTAVNiYqIzHudgo/ht0OGkZOSjQvikyGb+2j5ntS/uRG/ZXRyW7yq8z6Ru7y/HK9nezu7BtNFUPDSquUPwtyyLHi6KXKoZ98vj3cUjThJsw1Kx9HCeLWs3IjE+sgv6CI74FRRipBtZuwzgDtdMDawEFlkmQoaYmNkirHnFVbo8s2KqRFj+Hzpk+7idukUKoSQT5KEBwsfhTWUyuDEBcfJzGXTGYYULq9Qr4Nhj1VILtqiLZAaUdHQ88yLPfoQ5o3T6620KdL4tmKxWroCldDxLrB/sh/qQD2hErAzni4n7oDYbU5jxcngAB+FPoB5TMFN+jaPgpnWOFxU2QDWBQAAAAOLzJzfiz+hP1nBGnNNNA/umcn68GrgEKwoYT2l82paA64W5Mokmtx8yI2akBvLS5PSt7brYU7C5jWC6fLqsEdaa1IuEwOaWk0HHM89Iwz946ZI6O8vucFXJVktz4w5bIFR6YDbKbjREOM7qWSVIuYGmXAwHO46DxCs2yujFeeSyJeZFuGHQEunPn2zCIv0He9tGswWkaAQ1ki7+1gU629MtpwMq+2G2svSfkoEyoQGsUMj7GdTncYAerdcMvgRy7KilRsKj4ICItseLhC+2Uak4ETyB3F69rXYrwks7HQMoVCJ7GXa9WFhK5VHSyMVFMaXI3y4L83Mb7gxc2TogkWvJ1uOV+mwlgIDTKdMZr+dVvQtc9f3r5QrOY90AEStH7qHXbvZuZ+Bm5EbmgOEiqgUv1DV9zX4+2nI9tOQsM7mjVo0aQIXKnrYFczjnQlA/dcnIppM9d8Y0WdpvIDR2pUs1t4z+G8kztk/Qn5Su3pnQdYoDQyv2SNd2UcaVlOran4tMGQ2vWQub647f2VNW+N/BaAo6j3hIef7ekpLVr7b82KMilzvypb8TEkn+RCvUwnfE4xHnahMwT4Qpw1I9P1OKvibNajFH3QB9SgyeoekBRAEcr6xGzo+SLT0yZxjq8u5oG0Te106VhEC+31r8TSHjM+u6R6O3S1vEkAcOJtj/Lj5Y4jBR4tHIoGO9cMpg5dMJDHe4V2hu/RlEN9iPOuUCyuK1WE1ZLRAV/pTbHO4fDbHl2kP3c+vJwZmaDH9KOVFDBFHJfLfZ1iHJwYVW9nZNLRpeieJQe4GAY14Np0t15sv824hQVWe/08rtxMP2MOm8S7m2C80EFwKNPMnXuAOBeSY5PBO65My9iLrLyN4eg2FOvAADb6fuCrHUWS2YPUv4f0qTEFXJEG7xXvrA059mAAADYA187LTF/ePUvyrbstK6uFNTvlwp6cANoKQyA5kmgy0pXiYtTYW8OZ0e08lGV35C7ysEPFuIhpeNBPZ/+xq2TVndI+gzoYOwBGwm3Mk58sF8KUENhQoZjPZyfk1ulvpaIoKoe/jFWaWoYRCF7XBnWGhZnNYlfeR8HaGE07csA0L747qGQD7Y8NQMnZekmAWUntTUbiafYqJDgsOzEnfQNyJJeLYsyIauIX8YIL5WYx7i2Savc0yP9k0zp4ol+fh/N5TeWEnyIm+mOX9gPqwvSMrGsWxfzFF6vrGquxsbtBbXy0PnljRZg4R0EsdYSEaSt998LVQq9YjZkRyXyP1FRsHwJ+uBhtIiPaWG469neMIiCDCN6mbDCJKjq6vAejchmaDQSXa9FQSlBRWJHRAeUwRsmmsBk6ZWVpIgS6gW2TnzOok53nppACFG+oJMajWL0cZuYMkZCqHmXVzUfRiFgUREofpvneABuknxjifnmdnWHAAUrX8scvhgmWdBzctAHZYr/DUQ97b6Wxn8Hbxj84osoDPNSHH+kwAnLw91bqdo7oEVj630AEMr7BNj2m2jnxJIpzFvt6RXxXklOJMdOiB+GOI9XltWcv+OIbi7r+kQ2Q8K47/zEHE8Saxn/lmu+QBOyKvNyA6ecY01+Qvm/n1CARAc0EqjIi9HdZvHdspcL2MsKH8SHR0IqitqetmusupkEncO1kIVo49EFbyoG3cayUohJbvG1A1Ew5dhJQiniRXH4jLjsjbH2atnLPHZQKz9P2RHT6SnQw0Fq9tgKvYaycbtcrCAzQ/d2aCkoAcNkv0W0jxzQxDifuANgIZyCmmiggFC2cWirTK6OIq6SbWNTkVbouGBEX6KF3tfxKfqNJIjqo/S+uuR5QOZ+DtH5EKwuTicdJcvXosYWA9d4oHx/DZQsjxUbJvVSMNRoecjPGN6agJIjVdlk0o6Z5P2+Xnb64fyQmPZIuUPIC59NlMh45e/M+Rnh12Dp0HdM4TxHMTfpf8xqbAwQo6HWbzcDE8qtFY3inODj2JMDYbPouL7OeLmj9LguV4AAX9LhtdoVpi9dOUPw4rsVf+ZlLBPxi5lIAAC4fpWw0yADlZdl0Mx2lvE72lCKGUJqjBg7ei5u3VsU/NNpv3D+j2IFjJQ1x5Bi7axJd2+eHxNzJPhRCELphkNLATomv04Rqg5C0M7xzca7Qoh6uL6bpPQCBbxUuN+9iSXuKHZP4CbGj7MECBHOp2rHf+VgfNc+vHJPztAtALCRgPnRoqbBPMW/r2ruvuEoL2SaIfiM3TUDwuu/hndJV8InWA3sd2aFwoD2TGDy5FJWvfjXl1DRSqcrk8rDgjmCsqYVNA/2Pqq5eUBEgu0D9hYqyPeGJ4D6Ld1x4A/+XRws/+dek9ArIeJczEJUNsRJLacClKTID/sKrkrk4WqQ0Qo3Pk9Y1Z+OUpWHxSc1SCg925L0PtnP/Ta8fSEaFwx/B+GQSkzm7yMDlN+31nIbL9Gx9nlpP5HUuATbJmFIxLtNdMqQO5mUbgj/l2Ypom+sNgfO2NR+3Vl+STR0XI3iNuvexxw1C3NOSqcYdTAMdzxcWES2jCIvv3IUmwcgUvMHrDBSSsJrQQW2a0sEUIyCzpGOjv1rTC27ZwOC4D3by89XdyIGRni/LN9/QYbo0M2INfPXj97vxSvhsXuS9wJ9yeDmjeIs6JKzWikDoDh5r6BLIDBTNYDhlbx45WUYzah99luWJUFQJe56wDBmEynSwdaPAz0emuOMIEH8ApulzZKxOytSXchqq3Q//MsNO4wBOIyMW5g63AD6MiLdWKDbH9VqosVodfce/1dBS0dGqoELKqCG+bmwVQ6dyETT9xxj5PHX8uBNCao1HmE2kO/msG/dP3HeClOnnx4WZMA2qqLMAnFQhvG7gcd79VyjpdtIRs/uCW1f6QC0QT7y5XubEccEEAAPVPA5KE1hIzXcXf4QDIkqfqOVgaYgShAAC4WB3yxtDWLuG1QG8b2t/Xss/D5ZpSUJdUphf5TScAiX10ddzG7zm1A3foAiY0IWtRu/7M2kNwjOYfCPzpL9pZ4rg04JSvCmMzWXBB6hLuEhMIDvQEZ+8HeEcSmk/Gaq/8aCyo4imXysFQP6yWjJlEbxIWbdHxAF4RIqvMMvsE0JO81JsHzEklvkqlKatK27sg0SsNukX4/rdlF3ooDlH3Alzqm8FUxBL+qo0SwCaJoCEuYanSlq1k2nrVx/ibXPNjI7FMxFMKj9yI4+5TqEl6bSsqKKmLru+3d9ZxFAyitnjlBXzUPgg+kwkHs4JYR8RONzCxJpvn6cx085q4yhwz0c79kqy0g5tpZFPGZkm4YUldeS6aNc0XOefgtc3+p7Jz2BsOn8Gp61+b5bPqz61USY9MSMwZuEkSjv0O65CsRre7RYblWjcrychSgmRWz4aaIbILfHr5BpBmD0VjoROAg7qTBtGaQWfjVFd39oOAnqpvF1jYbJznwEhRfhUdnKtlaImGbwzkKmAF9jXmPmKtUQyrXBd5eTiP0mTGwdmBa6+CLt/6RXj7AGUDMGQuweTY4Bc9K/WNjl4RQZxo3mXnrGN0X5A8RQp8BwiZ2pLcjYxChxhuS02mngm/7AJdeOSxGhptuhOYz7ok/Yh1ycyi2KmeLZ2uBJAery6h9D8+bqb+bphJqVUjD2ucX3yKbkncxzcSgwFhLMIAAtYGyh8cOWORfKLknuPNv6X6I10gAOFZKjjLlTuDlw76nqkx+soCvPTmzJaSacRk3NjXkOMAUYwxmz/pYZSoR0AQYybLL3vUQMOyo8FFcIV4t+uCf5m5HdY8sZ8O02OvIdYHJmJuYtY1YzosDHAIyZu8r+nfhE2ZJp87nRHKaHqgCVTdSThZdPrCTaJzDpkQ+OCAonNzEFwhaCe6T3vA4EP0Miw2xyQFEBZ37euA4f/5WofA8YyXdLEbcKw5RgpYYkxHxW5FsfJT5UrQnBo67SGDmUTopZGB5zm5z+K82LXIikoNcmgs9IGo+dECxW9Y3Imyr+6D+QoS2rSUI9nJE63FzzvBuJ4QmvVYC3QSGoAqj2FtDjFqpQd8xhTckPis5gBTH+Axm+b5Y8NqulCN83jvoN6MgbkqHe12R/Zp05+pNttJrjhNqKkshEkn1wI7TCIc1e7Xf/tgOobKXlnyrLgksDBGVdGcG/1Q3n5ez7LpXV1DY1qBYikzKQ+HzlCNMBvYzhAYnz+JXMgmJMrWU1kHyz5ZH5qwR0rmrh4uw+Z3gSUMx6Tavkc/FZ7I0z/NlhdtSM8OGDFFpGL9/YB567iY0sANDIAgCiRcjk7GvcO5SGpZKbV9pVbogmfwJAUx8cWKvfF3i5PJIZ7DWkKPCeEhRXrZZPOJS+Vxi3j+1uG1Ze4fsqcohcrADxVI5EGoyqx+juR5H3PmY3N3zD14j6/XRjtD6flHfHsWgykNhVPRYqjztWgBHvnuizrAUanGo5GRBZy8UgaF6lqXoSBdeRfQAG8Jn7xd2eCjZATtHp8dETZQ+vKWOReIKwSGlb96IryokPyu1sIxeFNivg9KsuapsQ1x8tBIR0+uMCP7rkWetHVBuUHkDChpVC+p5foj5ryBRzEJp3Psaja3dk2+7nkH7D8jm9j2qAbUdd8IgjPR76aJmBU6EeKLyz3UUY6KAufde9exgxdUzL5bepIkc3PaqMLGiY0cvAQ6VqFs19AcOukxq8VhG52GnLYBAW+tx3W+tRjSW6vglK4y/bQ9F91nd7WanuB3gMuaTF6yz7/HGv/XsfgDCjs608HXWmpsslY2M969IYXd8bo/KeHA7d6JV5La6SerhZgOEQI7M7Cb8GpwjhV3rpUOEk+hugBCtsM4OzvvlIR+7zlc+TYBYYiFmRF9UqPzsvnYdbJmKaexKNFqkcxz8sUSUlRSg23yTgfbN43ySu127CHf6zc39WU33cSyvelMOfTo3iel5JqyxiX8zamOGz7H2DWtf6n9IlPIs8fLR9MRzeSSxemUxocXjg1hbk1ng2ZtbtaWnxDOy0k+bRX5GadYMVgmHKZANsWtD66rbkMVa/GYrifG60rO32VmhbSH60pyMoPmQq9n8axOEdS/1k0GxiwhiEaBzyTzsCKBMxHh98tW99GrZI2XJiNnrg7wzZHqZbdhiL5ejdiCquzWBBIEsMGuN5tKWx9G40P25TzUl8VnR7J6J538IG7fUd+ZuiURfWD3sXBeAiJj7cjCFDZtfsoCAAwvPN9B/CJN/5g+VexibYtw715MQJHaarnCMhurcf6WOUwVl63rMMuk2CUCZirad3oShkeMA9Nd26tlG7k9f8hDxpyFlcsSbbn1BJ9PWY69TjdVsZlXOuV2D1wlFcGqHBoJ7A+gkHQ8GSAAbAgU7nsb8YrMU7AiIcgH/VnAcSgIXKCbUhBDCXvvOheASdhztiHxSR7xm2AJGwgM+QSdvNFGCOOenvSdX5MsKiAce3LKr4YiWsa5ZtowfmbdadrvVKTnN/HKJKeF+ZMQ2WdmZdbs+7dhKqKcTv9DxoEVcDT1EZMci6OlShgR41P7vX55ry7nnL09lDex4Cqz21VdEZOekdCI0jogrWlnsaXsO7CWpEClGBg6DQh8u1ohvqd9cLMzwqyQahlnhZmYyu6aFhjbm219kPstrjbaO38jMINL6iDI3HRACh69/UZNnAgn0uisol7/jMofUklYFIV+uwSbarPQ4/Cs6TlQzbcbjhrTFtB5XXzrjHr+2o/tW4JLYsI0TzGPk2j9Z43XPkDrr6L39j8Epsxy24r5qYhL3AvddC9uR2AVsySoGi+R+cFvk91eMh+9fGAkX3rndUtiP4/df/NUbqA1u6HWbF3EyJJH65KvSkWKsFYkuIIXxKIBon4g+iCqFey/RBiA2hMvBBpTLxkvvaAW1i9FLny2+RMAP8P4GoLh/tiUfRfa2oGEltcPrP2FzrbXhDQ1AxGISSKFgl//3P7+O+UY0bXIbmQPuJbJevkuikAq6TSdCICG7dgcC3zKKkPOF6VMndh11XITFvhjYtmjgwYVERi2+ecn8Kdspp3axvxzzT+afGwG+ayzcvn4CO+s2YD1Vy7xLP+XBROkKjIOigDB9NVPfI9SSz7Jnq7+S4Z8Ugb1KTqT4PNWmNRxTcX/OnTksDJCCuEqac0ku3Qr51c4jNHu7oxOxY6ITLfKy4j1x7dJIXLYFERwJMnlg1dY/9bmci8R9DlU9PuITyM7NFWhp94vv7wdtApHjjbLbVLGj8UxLu53tcCwAAOQllA8JKWCC/DHtqrpq02DnII5gWqT2GeWOaMkRwOBpDF7EucXII5qaC2aI7jdToOtxee/LubM293bP3lqhREkfHQB8WQNI26Ft0Y+b7HrA43CdIljUimhK2ht2tYYZrME76+pwiNefMC8uFavlQrbtGD8uRJhDsx9f0XlIYxIycTOlfvYFPUqzebRSrm2rRvJKNZniraGT3UaSgnmBgNnmCHkfta7XlOt2F5jTaRBYeyEj+f7UwOrDpac/dqYiDJcUz6IrA+N0xi5Mg+ZzvYVB3DDN3oHm2PgjrwqgsH+yvFUSIvbUuFpZoxf3KDVf07TzilVvEkGSxJLPPYEwHYvi/wuJzTXES8P5eX22VGRVo5vnuv/yln5Ke1qckF+VALw8QQcezlS2zvjM4Lt4IQrQUZ2ED/46bhVzc8bKbLMl842JNYTsdIUXehLlNMP+P/hx5getc2LmTZ8DgtiJdYJcCYQzZXj0TAIuVUSHQ/abuBhOts0btrdvAiyiNhvWOnoaQvVCE8PTKjZvfLbmHwqSiK+1//lE3KAz8ig4g1/z9fZqF4urSSdwQ2IaCoe6xiLh+0U74cqolCWnSVcG4YDU+V5gigeQ2YJBnHBB3I9/gVBIlhtRau2mn6L8L+hboWyn/DTwIGCFeG2YBMF6d3rgOpxFynkh9NOy1qH0qBnBKGhEZMlI5Qu6QaE+PS/pKOX2fWcVmYGkqyWr1IsYM+qoCuy4e7GJFn9s3Qt5a4cbMcs6lxKvPzcdFbfGclMe/7E1okcvaCyJyYusGDxdPmorECxDRIxGPZo4k5IEUoqLXbThEX6glTBFAS4jonEDqbSWSsvcYsXgHAjRglJkKXYOBEgWa8Qft5WVzjT28SCMysrgict6yBmJFUHEy0VGnEOhbkxWHlmnaN874F8Wtjq69tY4pK0aOxOj6tK/NJe4PToTa93Bag69K2ldLzRDpLYiBW+/hzC5vqCgABKI2IUMAE0TjTAza/fwvszt4F8GejpswRiKnNWzi/NYqQ55p8fLsKyyqvHL1eakL7OQwQdw1SoipmOLkOOJkoME8EZFIPUNh5vXZR6UXdTgnrOekejYpHn0dnMIOHujqlYIl4x0xKliDny/SxRgLGJE5u0gbn6rNw6b+V21bvULbXdzprJmsjf1XdvAKwZD8bvakKG3Bnb56xU+m/le3npUgJ5xUl2sr7GvVkOJ5Oti9waDL94k6Z+t9JS6OthloZzoUycR/vYcVM/pbMhg3sm+4Stldd+R3LT42oE+TwWw+WBvcki1UuS/fH5M9JGGqcFCLZ6XBOsbpUCVfhCkjkJ+vFR8grmC9gteiynlNHQH9lQQVtm4EP/ZkOkSBsPYky4nHwMw4qWFrJdtS0h0MBwCHSjkRazPZdH2EuQdBvrs97rvN5zagyDHQzAkarTn6LbsjNyPA6HfiiFcM+n80p9ZcXzSA25XqkGSZo5NXysZGQFWuifv33t+V22ek2JyVJ/y9K2XJOrH5cvDr0YDajXoAmOS5ojQufvzYh9nH5fQBN53G+YfrvOr/4Z6ZzupfCltrDO6hEfAf0a6k3L/T4Mli5QVTkFaPJVqIQL7UgQFqp5sro7eIO/kC+9EWqz/Z2YCHTZVkfMjo8xLem0c6dIwDymSjoLu6GXdDVXP0gu1AgzR1r+gNZJkjMOUHm1f+k7RGc3HV2p2DsTbl3opV4PJjayzLpBbpekCPBXKzP5LqXnQm/MrqsuFkv5uY2efkAaKqyKo36jHfgBucBiK0nRKebeysW9HqkBs3jVYsHIDg7SheRpBSWm9hRI0W4ASItRB1vLie0PzX3lyzxSXwXECYKQVFGIb+V8nXGRBJmYg7NwkEHBSp0JwAH9OHA5Y3z+DAffnMYM6g7pDM5lrbIuwxqoxXPSeu46taK6m1F6UkLBdkwLbEBKw0W/ioSEBkKgi0qHNR2O3/CU1KS9c8znoeHGrTAXrvyVVzdv8vhiy27miHI+7yFPEMhnUtbt2hZd6AJPTZN2pqFDZjFYekmH4AAawVe/IXju6uHJmmy1qZF+Nu309ckNCCvfdRIrDoZ+0VsR4CkC9Ic1N3toN8fK42QBJZgaZPLLB7o0e3Th2KUkSbY2Ofmkzo7QKhNdFUE8MaCO4TqBsUkdAzahxn1m2CgpGL20bnU0y9vaeJ2Pwv2fEIKG1Bwn+6TgLKuQW1TMaWABcyb5SB2megFloYS1MIL+QwHtfkFjYyCBkKJF9VFn1vbpUcBzy2J7YegYzGXGNg63ag/1PZW51Wu7BaprAkzvha12L3oPvpcsdmmeL70IpQmQ9Y3UcF2jdkv9aKHbuOR/YhZcSeHcuo6XaynymAtNS0DzkEIfDN0fwPJTY07EQQux+mxK5vFGMQo45H9SIic4X3shtkszGbiUdz/mSAw72TshzjY+7wAagkp/5dvl/waJwRiEJfXn/LgqW3aOs1FsXWYReRlmybA1qN4kmWXJNgpc9A3VF0+CTJzt0nAm8Q3oAk2BJ8IIrdmJjNyQgh6K1HXdLXC89vEWbgVtxO8m/Tfm6mhENP88crN8uNxvZ2ooB4ZFOdQfdVkx6+n+QNGAnYI6ffLPHwFFJtL985cgKcNt0de7vuAr36WqZlsiTA9nphI1g/vbaGHjPCzTNWbZdv9xlsk4RghUz04oekWQYzKHC+USvfaFVUxTwO+1NJHw8iQNiWZCUz1OhEGqzfl4iQm51pJ30pNSdCBJse7gLdSP6+K/mAigQlfhW/fvWG+Uz+WAjFCbPQvfYFY0jrJyB8gF4Em+jtQrfdDJH6fIdU1QzlMqo00GP5wzbR5TWtP2uWMBqkcMZGxYzrNeQ/9SlMuy5YKTFdwpJQhwtC/ccef+hIjbL+2iF6gvD/9jrfiJ9F2CVeVGVvPqvk9yV5HglTh5Lwsd3unkRM+FJe/zq57Dw33lwOvkioQq6agQUidzryH9eEIFGUGeQAFFalmHEVGEFZG/9ToddJtvG9c8GzP/6olLD9ljUX/0Eu/hVaYCSY90YsalkUXintTpTHxFPbXd7HYQdqA9ysQGfwzv0RNlTMFFjE4JXMlYwuI7YOZTBgDSVdYrybk6it/Owr5zSm7+gFNTM52k8UZu/kAGwKQE7tIlq6n48SwGcuvjrLhrHyk7VuaL0We9dKET8jp3YZ+eqWNJPG2zPhrsK3ihnSr7BjU5QrkNm3zuTXK7/gXOnINgPQ1U/CZTL8ICEE5BnBlkbrnV6lKl/71HZKnGqUkl949xbgataKw6RolJCjLH753qZItxMn4NQ6WG9DVe9BFv6qttwX6KYVOPrd1+HW05rwmWBapns3xhx9khFAU19ssNahZntviPLGZ9Y8idBSwzRcTEpffsJEsHNr74aImX7UuZT7schATS00ccyUv1wJ3LlWnSNCv8znPhHaAb8boNb46iNyCHH08eNDWOPrdxzTAkwKTBRiXo8LIxSX5leFRIZEoXN8zLA237+WR2ANqRk0N/wFLYSBE8YvS0h6zltX7C+DAqtg+N7WECUkjVcKZVpOCOSnUSDB5vyE7d+ZVPYpqcfsR+0Ijip5Ix3cCWhto308ZOBTxDplr89ee1PgESgJLQ5EWInjAauv4t11/QyA63qBqVTJNYZs65RrzV/Eiwmu+K0BJmXsJ29+QZR9DSUUkvut49FSEIxi5ZPhH7Yag2ZKrwiTcuIn0Jj4j8qEE9khtR9rDHrsFvH1YvIZe5y2oByNzp9/dyyTCjqUQCt5XTUsfoXeiH69kbm3/kEwuTrrtO/J0z4UdOLzcwoMCQuBEV/JSI7kP42CCYVV60eFfVVP31syRZr6U8nc/tTmEXrarC3s3RAcLHRhybWIrj5+tdC6y/oXn6+JnSXuHQnG6yySwfS7mZLIv0+qW8oCHwLj44ZXLTzSpo7qI2BOw2d2badm6PJXnxXxO2pHydPpAIr49YNv39qCvaUXGEW5DBMVAw8LLYVA1zy/rZ4aLUJ7Jov6kmv/k4Pxz8G27BRycPlQnMfb/r2LjFlAU8M6z+GuTCnCWTf+RbqIWbGt1nnyQJDhVJpfHFHmR2aTGQYdTyrtb4aBXkR1/HzFRVv4zKRueXDj6kBBzfmZeqDu0Xpm/LVqWpK/+6nJE6eQ1jCkOSvlAtdquEzOIJoeneD3dFQlDcu0ZVZNkTPfwuBrlMFrYgO5x7THmiGUQQ1KGzikriROYSNe/BMYYls9O3nUMWsSV2VolotnjPL+TKAMRREv9Xggc73msw28m39jguI5UHgkxHbwhSvo9AuvFx8BfQ0oD8BBxFOeqpTHcwKpUjzaX6ft/83hYGlsrFR5koM0nsKazZ4NGaH3e6x0fbRHmcHANYxOqXE/9Ke1ITbXI2y8uImAwft2hzh0Zjnc0C4wPgvBXFEuZNo3qCMhUYgaXL/n/vhyhBNREINWVQ9JhH4SFrHBg81n4xDBCcAxbf4k1dFz0eCJ9TkVd4IE7EeG7TQiDFInuFpGDjrhD64JFA1CyYK/8IopzVYt+CMt3bUhUozoBgSj9POuvgfxozkL/VETykOxarkNTKyfi6ABB6kY7DK0P5WmKtvQ1Yq2X4MT6I+JmXGOMZj4arzjIrBEnAmCW6Nv4EuuH2VL0SvbuyPjziJ9N27VG7WJ5l6XFW2rR7H8x8YPGxoa9JjxNe0GGY+kyQ8V8C5IP12sEnjdIbzCtTBzWooRZD+SZb/uccsF4854pjOYVbzhZKU6ayr9kPzOHdEHNoPGUJn+ynjJJ4sZP0L4DvPr259TqTAgdEU7eY7Kb0TH1ARWOHD1QIbPb5WXW4mKhwYUCw/PsqusO+YrxBWOegJZS5CZu0WyA6jIhC/4N1QfDA2ufhEob9Q1qDnnQ2IwHhC4uccjCZ73nf+ptV1Q9cNk1j5Kb8litpmmR6PjFMxqZOCC6tZtr2NHYHobabf9HG9NnSgEkRgL6MD/09PwYMT9GFVVxrhWKxQ1ndUjJq/DiNhTpMFhx0ePzo1Td1SSsd74vPQOME8GD+ipY8cMZrWT3idYGsw4gtTfx6QP78ahpSJxKrPAVCt1h4Z47yACS211CCyr2vgz4qWWlgCMu6+VSHX3CqiyGzWfPsz/AwoyBHaeSM0GLwMUinQjT1RbI2KBqkBrkoZZeBMjmgn+kV0i/lLgvElRYSHc9WWl6MkqzxxHcXxkzzOqg8UuVjBhax9x+KVTi4V96vdSHYi/tzLqiurSLDnLIlNIkYzsM9PEzBRDfsWqL0exKif80s8BlaWAvtfN8P1M/beIw5k+dcfI7G0Szd3Pkw05nL6on4iaSdIfodtHGCH6IQpX4SGhWtVxWu5EjATnGgE2ypg++evB4SFhrTIRUMc0Qx73v1OF90jSziiYR1CCs4/maleSyAdiBzu+iXAFo8NFVJlAa8dKl1daqXUpNFtWXMW3j3vJM86La+DW/QMNaiGXLVJpYWuNzCB/9XN4lcsRb/Ovr2Y/fTpbnhtFDOReT1R7iZ96vfzSa1Gbz8mH22Pw9QWmYiDQ1i8KdTHJwoG3hJjdGEpPxdVK1JdMtLOsQ7vuqW28kfLGxX3IPE4Z2gDw95Mq/+TMpxn8JJuLvrjUKvls2uVB6vw4oh/EHnm/nXgT4fXywEa2M5rkmar1+Mh/VFYsFxnaYlWe3GsxiEMQplf/NKG/ejpiR12XYuEftXcslAUg4hvo85RiTUcrRYxPcWGbiSCDm1aj4bYs9HwBcvI7Zg4A9Cj+n+APf1T4dLdcyWoAyGSpm54/bkgAsLeADe+e7xtqikD7qTt15JDhXZF8udpIfDn3HHpx/vZ2mNni1K1xALyAp3I9Xk2RLL8/fdb657gmKU4VHUTWvJ49GFclfwM2PrNQ33eSSKAi41U03Nc5dbZCj2kJYnoI+9axKoRYrAfR8aobsCoB21r1CSSxLs5BxENVb7vtGozRFm08wksS2N1Hxvr4EVDFjZR8H2DxN37CD34QohZ7LiZVViMmTxTgmzQrTxu2SXHMw61Ek1898zIVHIEB6y5htE3CPAPYEJ7vh/5jSrd/HM7s4HQXh4TE7JW3XEtTtfeb4K32yr/zdOW4cqbGPY4RKOzPL0lawo4UqfePuaobJcFUQBMiwZ4OFiuwI3wISri1h0g2v8oO1zSpj5FB3qlRbS5/S+Cx7frC0N02pZu2Wv8rfnh90Rv1o0vmHO5Bz/edBknbHUrwtQ7NSFIH1ws2jNWFogBPsFxg/wvIhC/KJza0JXM87Tm/OtTbpx0ruy230L62/7HLigyB2u4n0uFGRM3KWHWuZWxmektmeogrzTug0+DVtW9BeLnIyUJN5n9wupQzhZ8WHqSvedsbQMHytehTcI4RoGYp7MKSGG6Ty0b7xfzYWUGTXS6KzPaqm4mlrh4fpj8L0LCm8lwf2hzrOLwkUsPG71tHqP+KkMPpVj3wGyEXcGURplkZ74K2eSryISILOvXwWPS+Sj0UnPKTwhTB5SdjZ9Upr8U1isFG658RAATRAqzWw+615xi0Wh+KGopWctxopA2yW9Kg1jpE55MzKH7tInGDnWtzQWagz1uH883OXMm/+9LS2omLP8y9P2Da3NAEG8Llmoxtus7YkmZxnrg5ktr2361j9yDJSqddtUgxZwiOj1IFYwomopVwyEFXl0QBmkxhI8ToPie2zaMs63Ia/vzWJlL4/XLsR1eCfEWi/VQz25S9JBK5S3vFR8a/pg0+GHKBpMMecJ++2ymMUDclrVgrs77wKebEMKE7mHtZmtSEf4qD6IN42O7aeX2ufsEgjTxN/HF5xo+qUThyJXeH/T9YyiOCloVYx/18jHcWXzvi/hRe/b87tPOpVfznkChrIwLXvU4pFHZ/MuiHSb7tiMUa7vPlIuZyIX2v43Sdjm/gZkFFu5mORm2C1a2D32xah96+P2tMcEfYy8FZ3l2fz4IzzaAoI0F6oy5UFtA+ySJmqUzDj4WSmUO5LZFC4ZnkSxbBd/0ZNppSwhw4SBMog/kPJ6rLDs6UQ3SukOtizdMiXeOtBD8LxWxyWGBQ/CmCGv2oelD+X3CwIV0JWe4igi8HNMw1BUbY0s109FMCxkWgyiZNKKOAuf2miIYtyUhL5HcQgcQeVOPTeMHP5z9MQ3Cuv60VbSy8GnYtYChKE4X0dPWa922rUbv6EfVKb8yvSOj2NRkoxm3d1QnzbpG7/YUZHYQBwiaMN5JXH2yAA3rWx34tS+hy0AsNSmD8qzO9ZV7LqIYIJqAxFQNse05wbcyAJ6b4yeu6W5npJdWGCywOzepoo33OlU4I6NnHhH/KZcYnZCcR8yNeJ7QWlcr6jJijQvls+FmfGPuIs/sFOURBCTeRI/LFqXpK4IR5qqF6/mMhJxBWPYJ4R4cg2ZBOdn19SHnZPXZLkx8+NfYczlCXmfZEnx/De3odRNa3icqeuqrbdkSTb85e3ozbI0RYwGp4QtGkqCV4vb3AOKWPkd/nhcjZONA28uIXd/NBGwcbxmPwR13jeQIUxbnTddr2Hh6wdI8aFlQCoAnwo0+ElvXOiRAIa4HUfuZH38tpzySi8e4jV7mBI8X8mdxCAAFH2rS5cI009u5VPCRlaRQWdthbn2z2NZJ27ZP/7nno4Q+zPN4dPMqekYIZLU5+uftDRCll9/NTfnL7kp8kO+Xx71uuRm6xrFtM0M3ZnpKHXdViq+9u9gXc5N6QduBcBLsVhBudcgpFFO8GH6BQqmmw2HjBWObyrCThh63DHdoMBqP94nywZcLyt00nCl0bbHNxc7FBDHJ68+gfm2dL4B1SN2iORHCcaPHleFoxFzc2gu5En4WqySYk10VENKF8xmAq/a2+exysmB1YpueupjF4xx/Y8f2W3PKfsUOd8y6B9NKixIt7mHRUm7XleMaWP36f1EBbOhpS8Bzx6NkfDoZ7Jcw1EQH5/LnCpC+pGOX86Jdd/kZhbhTgwSlCT4HHfwKZo1Bd22NNBt0Nn4Ap6MAM64ccMyOv3cOzcqCEWrlc4FDA2XJskUkwrnF2uUrNI6woFcm5axLQcKePCnhjt8Hs/MLxjKegLO/tKi2A/YMq7RaDgbSAaFaKuMJqzmwuzlwS7oECkvp1yWlBIBimZ2xQAv04ufvbHDpNd6xU4Twh1/w9QR4W2eMBeTJ9OQuTgax+mO6fMZ10Kb2zG+7pUp8xItDFzY7+vPh6rVfLJbwpL55r7Yh/NQ5fUvptbbbhixao+5bU83tkknRvwi2TSpfHLnRHN3B+7OyKAg45VCL9MDoZyM8BODE17WZ26/E87lNRUa9K8lebpDXGWCFmKdmFCQ49GgrFxKPmhh6VcVKNfvDMb3Ebc/DovttEhwlsBnHy4BvH0E+oersI7JXc+2WHiokt8IACFo/G6mGBsfDaI8a3tVku67xVftqF9Z2zx6BospYKk7EGK9Ky4Jf8F39H1QZTusMWEy4LD0MdF9QNViVjgv10WfZrVkRvqAudYs0708O/kU60mXUuT67dMI9HHz8RW5odfQk55aGaN52A2SVh9LA0cSNHe0lKF7DUZdjBnfRMArEM8qHLo2IHusX7dB9rLhDZ5ON+dXmFBxGnnahb/KadLesWBmD1cc4Tf/d4Rm5oOEMDtCNQoPEdgKuMxgCHbW/IrnGVPWEhuewy2syhFwIgL8O5N5aV/8m9Qem5I6Q/hXMpLVdP/rsSDNIOUqfxpv5oJbVJXrNU7sBuXB17mGrA1UUugYqfFiSm3PxWEZXX16vh1P2WXXSzVaW6uz4eAqpc29D4v9Oh26ejUczVVZruHW2xrmeVkfeoF7bxUG81oN2ghVof/loZPGDEMgGtTix4vuaDSN3SXVMDkwcU9YhoU+cnvfCf+ik2pRUkb54Qxk+KFWUqZmm3awcsp98C5K2gIq3fkStVjG5vWDBXv7MumH5+m0rB7IblofGNrSyw5qVyUfC9YQP4/Coy5SoUcAi8AItpSVYgHQEYzDpMLV9osICVTrwFrUOXPzvA9WV1+II2qRbHzZ2kMgvF24nWvGxFZHKn0XKlKAl3JoG6Vckg1k0H2IXbV4k/MVdWXqUfcNrj28OiK5CJp2Zy3sfICsjif6ORkp6lWYhgR8ztPdYU3iXHeTOmHajX/Xf4JfexyqMoC5HC/Vg6DrtOSjoGXy9fs60s2+U7vrxqWeDyCZxeV/6yCOOvyL9B0cRPH3ETjyMTKLQvzrDUw38M4KKdSI+IyCC9D8O2lyY89aJOMq+XUK1cKLZxgWpkbztvuzxXBGF83QifaKdqZbZu7odXwi/xTud9yHlxu9JxfVEOdpR6zaQRA1cF+/V8GKbZFZlfB+nbNERObfK5Wra7t1ZhA6/qEAeWP6ju6m5bwvgW1Rzy9ht9eGO6PrrmX2fTO0YOrw4eO1CPlBewYOhWbv7kIbylcAo7KM6WZhIO7Wd0y7h18+n4HcrdWGyLflaRI+eHhvtq5YMjov4hj4P2oj/NlUJk6f+YaXqr61/NDjueEAsW8j2b3tOBpCvdIXaWMWP9LeHB2w+MU3w22tIeqfhm8JW/YbjO2TNxdg8SuUPxrngMs+qp9TNYAohxjp4DcB2nphX+PrhajIo34wW2udUvAPE30/CifaFMYGHne72BxziX8ng/Cnj7GifdV0G5DOBjEZIBUq1KHMumNBTkmm/L9etXscHUA14VH5383yUJKMxgmh8mmE+6Cc1M3e4WaVm6YcB6pLKhIRCsyk+tscsr0ep/FsC4oquPs31oaYaVPnpJwjTw2e7fhUNn22JH3zs81Vvf0c5tPduFh9y5VDqKVwwmD1cTYMSYXnIjMNorPqnNh8xrzu5YVUoMKI87mLibUlrkWXhssITxdqwEIsTNVZBSNdlkRKSxqH45s4rGe8QZmtiGWNP7uyjJ9ET0BrmCZjGPOSwdfz3EjPCMvAELNZ8AvN0HoHr4wDSxw8abcJoTpAr+GFqiFH8BR2/bnY/Zj+MZf1ona7oInECMihcS35T9Mi6x9BxDd8UtwnK5kBEyKMo98GC3J+jP9iIlYDx0izko/XA4TV1mXDIioyULmCzYSs6JgBiQkwgJ4FqQtfQBm8iT9OnfUIjQCeTwmkJ7h0QG96FY6ikREAAuo+JA+I03QpldiLf6t2me+P3euXQ3vja2UJBbJfuFvSGnaj6W8PRXWISoOiiBI9IfIUaSpi9suKAf03OwcG3l4cVtN4vFR+uAbPWGoPM4TZhNaDRqoTtcFrWS2znpmE4smjRB30Ljj3EeuW5nveA81DO3IhzeFjP/l6UjKN1y4ZAIMn6ew2z7fxb5BBDuIH5xnFQgAKVdSclJZTt3LMc6xQGxm0+EUCqAGe0WlnxpkORSFeDCA0k/pn3R8p3NqN8QbR3KB5XvcFtGqJqwMml22aK99nsrYBcx9t1W/wARzam1yQQkKpSHtdD5dornI+nXWHZYTJOvoyt6KoNxHU2/uccvhXI0CwVXZkS4jTrcX73bVjY9pSDX7ur0A6ZtQcpn1dFSud6AY/LP+hVtLw+7+2lkdhL0mEO1aWztn0UfmOpkgv5gGEtsS2pus6sXom5+kD+2XrbQlAadsyycbUCcCZqzqp0Kj5ilRpidRWe9EPDQo5m26sLoh0mSeYhseasCAV72VLMa45zGKF2DgMK/uEw8vjflPYvvrvoTnO71TLy/sivsmSOcEfmeSTJa14oGWILki+vRsJw83/Pssd14QiBTwsvKdV9U3JVfIJTAiOMFwmN9zWdFtH9M9wKkT2vl5db3kMfAPf+QqNQgl6xFrre40fkrdp/KihC8x3rEpX+/DWNjceAsycvmMOkOEZBsSRrQXQsj3BG+IhUytA9XiNM+W+FTGyM5PbpiBK1o0E0T8OESZJqYHw1tEcYmc32FcHCuKEPNCFWUTe8U3wXMMetF1R5uEPwO/i2dag7/FPsDKqY0JmArlI4B0RypnVuTROxS5zarsWWUoGCR2SrKKPwOTZo0uJp+8yaHVCssviyxD/LVrsctv8VZMVwP51rQlDrV/QGiJ+x0FbXJI5TtlhGJ+/DyNuW4WuSsP8/2sZqsXfffZr0mhRKbb3Fe/5X8IQa5YBHq9iO/xn1gQpNuZVXBickUzeUU/FnEyI/QcLOoYoJTEGkWsvaE2XqjsrvZ/AyevMUfILXxINii3Q0ZjT4ilOzLofDgPddgdkJ0o2M6YjWqcceGrDoOiceW2d6KqyHPn7EDAeqqjggNTATPsTXbLTb5wMjb4InK39PG11nNWwokuj0cAfq5iaqirTjvAii9MXRUIdIE0ScDMtESbxHgSpDBB2i61gmPBQjT4VuE5bcuoVkXRdC+bS2D90fGLsMqNJUklWn3KRoGqVTS8ERHUk2ipUclQw2kpDBXcaF8AmOAQ9tLpK2AkCoMu4FYYP6RxKzqlLPxzBMoiDrL3VWIaP5GWgJzB7z1NAY4cuqHMpzKbeM2EL9h4+/YSyha4FRJe1fYDBwM2JQHZ3Y1R094nZBhIUQcK5z2HFxILtrcg/YobK2+EPaEGEB0cDSt1tf4a9CpQaOfqUtvNkZLWuYmsrzKaxcyXnASGF1FgryKhstJ8of6E7lVnn26/8uekuDUTwGrGuJbzcMUYlZ63JkFBfRxLuoKbkgbhWlCGWP8hHrQpiQNsjVhPvQjOu8zu/zX1yNDla3H94uS/yRwLgu02cCel7soGA9trVlgFzUUnxzRH8RTAi2dSQFqAoYBTysPLaRQJfzFwTmGimZNxeBnQfofQTzANuhrZ1EbPeniw8P+JYOd8SoKIh/gxsIGHMsDbfSj4X8pyb3gRVlUXrdlORheSSq3pSV4Lsoh5BGZv35aId3h8xgf+miFfBkTSDj9p+Hm8TUMvUhfbkuTOgRLqoAGWVCKLGGd3dKGSMNoni3pXiBVdBpRBh0bBQDPJIQPr0G8X+HBB+EpYbNF/Ues3lCE71VUPPUqhO749+lFae24y8DDXeQtPLMQH3OWUEdwM4za2X05YoeCJ53mqlFReYRdbVh1jtlqizsK5wvhzWGd8Grg6xtQixLVOOnHuaSjYoL77TiR+U2d7oYJOPzbsN6FT4v4X4nbjzReNwB/SdYDF4xrVFifKzFAyHcnatuNcEAbKcyvgNqhhyAShOlcJgGHDNWhKAyl1DmgfcwUod8ZM1i+mNEpNqFYgnfrPL+nqLk/Dx6tS/vp4cBa0kGzj+C6ms+NZDyPoO4PMnn3FeLq3fJRnq+O4H6WcuJKDRJSii3fjwgJn8DJ+NRJsKdzrNofFsToLa/8KscxM3ZqwtLGUgTsk8WqWqCknMFYbzxh7kMFIrJzJdMEmDY1b9Crn2J8OExdEpLenRLWwFk4oZSUKBqg1GwdF4q6MWWab4V70USdGNs7ebRvzuNdMoE3Go3Zg0ZThHYKNsbi/TtzwLCk+Eb7r6Uk2HWVidbXrKGR4XhJXOa6Gl21XskRoqz1A42XHVzN90xjAw3soR8UqavBUtuq3HDygbf8Htj+fEwMT2Fq0rizPnBVpWmUZsV94FqEkH6cjJfKEiPSwzr3zABCjpSQB8S/JEo+v3dPy9thikwJIUT9mOOXFhlcCBGVmD66E/SfL2gSeDm8GbIPuv4L/YYAKAn1JKbwMHE5sUv8B0GF5SHVTZzmjHqWswyQjkDbEEqZwATecmL6uxti9lHxo3TU0Bjf1Qrj1XHbLQaRltTTkvPlvrHmoMbjZ7veDEy9zoZE7fVn1/zSsd0wxEdGQjtfO2Tri7/RWFaKStfApSQQC4mojtqk1Pri/rKpvwl2uHuae3h+MsmYAQj72zd2Lb60C1Qm2efGGjhbmkpJgpaVxu+18PbzmaRWZFLHHVjNzGuOzdc5573y9vwnayv+TABdolXnjC4NhPXE4VCUUDfzUZD1+m3YzZcRY/vAeJcFbLIjp3+55e/gIXNi+hL2gNNhg69vBzyoOP0JIE2Dmp8AHEiHIPiV73gPdb1mM0x6PDqTjWfKnek6suaSblzmDUdUskhkHkl52Q3VGRChS4OejPs2tm16atEO95FQJVtnPf4IVaBPYmf2rX64BGWC5q8z1ShOTktCy7PCeqI93ExVxf8VRT9UGKwtD6f+gbV1CphVH+sUcANDWH1v3BM70MyX3Tt7b1vvrtz/3KM3/CZ+OJ4hX+lMGyLjA/dvUhmIgXVMjWYJ/FWuViAcz9xPIx9hsdesPkFoWSfX5HsJ88HrT3cxmDlVp4fAp+brcFh52VHFnCJScGE/srS++t/YdudlX+h0ZqR/U/0EHe1XIVhoyP3bwmXeY/jStfK3A906y/yyRnssEBb79to07QBgbEK4eZ7u11RSWMOjV+MBclRyZYX8JrRtL2EqpZNqRxElxBABtpYWYr0ApkMhnLimLDWDljCL7Kcq9mMz2oIkE914Rv0neI/loi+geXihICYRuI68r6GQ7KGNRKgSKkl8ukwVMig/L2QGs/pUSqV8r9bEewv16SEiyWT0tn6maj6FS/0tgRgPxX4bBuAFZPzjy9TsvvkVtyGRdsnk9gMuWMKaAxlDTsXbuUF3bTVIGYMaZ4LPeI0o4KxO22lE+cE5On6XqDIs4xaNLC12p1p4n09/c7wZkK25g/QlN8k6rVZSiCKeLGRXXiY3AKpLdrjShS5YvOsa+BtOQ57/zashBokVNjUoK2hSgJvBxTCi4BD6e2ZqITAwza6gPqI2jTLzgg1EJCCeOiqe6ZKB4+rO+nwhojYezbb8dff1SQaoR4DEe+zjDQdZYVTUZnhHyHZSFtOAnPnyXZYAysbFOCLwW+oztnqHbmvR0J7XZ+h6qzjWF2Bqy7VKfZOVC+HF7QOcsarcSVNdFwLHF+p0heR1zeZBK8oVjYHCyA1BpFuvh35OeanaCxl507yLAdgDFDMs3YVvLPncQbG1ZjmGH8iyYlVshHh19Wf8bu7SQmlbTZdMxUNxd3zDKSS7CfOzQjH7IdEibNOD9F7VzHP7Un2sjBTJ7CjGZ/i5OzsxpklKvcF2OhkJCDyYemlA3QDQ+f5t9TttDwyVJerR+w0N9x3umfkILE5SyhO5rn1UfHDOAXPwwYwfeJeLnLecVd8nrRFfgqLb77ZoPlS90UwOmUF0ITN8dFEhFwZ67XAL7U8rZHsS1w24rJb338KGn7lb0IlbeH49K1TutCCpI5ekf0fMdz8B44tw9aahY8FGwQub2KlodApxwTpV9wUTKP+5bVhGvy1KPzLwHPrb52ebjldvvru9uQrJ340pmOLn+l8XsAH8ZRTMdQkq3GDIUxCwQOmaGaXASi9X6NFZaEunAMuto23oH9UPaOcLg9JWQbrVr10Wl9DC0IHGmqt7RoYUHFjOfim10gVTsSjvOAUnCxvM5pjM+3rShO2D2TEYMdyLK37IG5eY3ztqSCerPjnDlcgKCHTGL2G6eYWT8BGj/EaD79QVgbx4bYtP4SAzxOPcqq3B75hpV+uSFxLBzwQvQL1M5mi3BWHFN62myjkIkAUBNnLMh6xUZAHXqGJ5zgayFHZaHeSiYoIznztFapQVmasFrhzsldIZfLHKjFNRqz7kPHgLbWtGCGeLusQ5Scb0/9qsIj5i4eRODS1+mp2ZjlVbEqDo6L+o0ECNvWg6D8lulCuMcuRalUzvYJXbOfS5Aps8rrtBBWccpzQrDoE+7y2wL7eCDnHgwPXY53Tl3yDNw3k8e4IoB1nWbyHcavpSKAhrb5SrlNdVuqqlsUKHmEgI+WLVDrnbmJbnNT+r78ps1yMqU+QV2lCbm6VfnkYnl3b1O/lHTnUVhRbrJ/xgOpS4wCFV5tsqSgIPDAvdcnPuPXJZcS1Rq7i4OMsu/PDW2fpPpBzu1gCGeN1ANMAmCCnWtp1yZbyzi7g5kj4G5a5ON7TdfwWuVt5+296bQnL605PFD44ZoaH3vBdtepn4DjeLV2ht5PLT/jHmJpojlql0mL1PykFf8jADEOcaFfwYLoSkV8AMjE78vKUz9axAKtRHA2kY+YH2RWBRXZ7YdW27EqdvJdxbScdVts/PHrd+BTeCW0dVRBZwzY5ws9KP2dkcTV6BxOlC8CxzSFamfydqoKvcWRu+kTxguCO0La+IJa5Nbqbyw/ORrcLU0aHiQwGl7D4ELnSgrc2tG/ZrLUJhznyAefGlmYQ1XUp0SFCp8gOdQzmJQ2Dbek0Nm6gphqwJEda9TdLwkYiwzlOhHx5DhWSZcURb+boKVpEK4Gi62keNXqalwQSne0/cMzjXfsHboiS74domlvv2VLgjVZ3cpz6hkm8hd57MXVVH9fYYWxarA6vyWQtMq82Av3QZKk75xtGS2aROEFVYcVIvlJK1B7fIiNri5d/DvzcT2Uq7A7C7gyZhPUVrYLfJXN0DxXz57FEpEYYQNWipkfbF18XKwSLgw1zD/l6iudz9hPR2PM5jl94YMJJJLLvF6lKNT3QxUbf4BzVQKqP2IgrZQUg65yciBDKOJCa27y0eIIeEQihQfMSYsajQ6Cd6xeHtwZzrDVjTHMQiRTSPKC909EDIhzacjxJnsIT9g6zBBTwASrrge/isaab+bgILyzMrND1Dq2t4f2DfB1kzl+BnI8qJaECV8hPE7rMhreiGiZ0b/DfAPQdNbse4AIf1IvTx122YFoDHYL881I4esjFx7U6Qgze8mNFucQcv3n8b6RtnISvwUr77zWrncm85isGvYLVKjU9E9ek5otW+wCgbwngaF2jUv3Jt//EWzfl7fbtIG5cPjWGzrZxQsHUPiiYfkSxgUDnHU71PbgJk4gPT1OR52U41V1ZZ3OkV8YjzHN2Uz19QWyhqSHx20rL2MoJhdpwD1nNQNY8CkxXw0iJc1bDkcXOr6OTNQXTw0vxl8l1gfPHvOh08JN57twtOljSKQ2+0uw/pGZa0/qiemZ2nyWHIGJlVYS9p04zbZvuXwVmtMphcurL6752NtPtlqayzNAEFuodS6kYBVhpnXrz3ePEn4VVGz0+8zU8twZHNUs6y8j5/jR0cZKuuePmP7XCqnCbvlVKVUASQyn4uPKiW+sQ3yBcubtDro+3qw9cGQmGzuz8qOS5s6P/TAwQ4L4otAfCQvtptGQa8kj+o/gqqKucMcesBGXLbJHXyDr7LzQv9BPPkfnX6BVdvlgOWXIOY6RP7X799Z7JTFF6Yznu/KiaFHcINc4c1fuFyHgLBAM9na3AllZuHTHJllYgoXfSkWwS79aqPDHQ/WHIx1P7IaB86TkwDCRveskPyHaGruqtsUS+5UIpfrr3CQSxVIAaWov0MINTo1qXghOrkrIvcXCHUViDxXWsoipyrsOdA/EDBH8+IEsVnXrQieFaIfh52j8REnHdVPBFS800JDyag8LVxwloUtzjphkJoz+HBMhXk1ni/x/OKndewr/12g5jhNcREBo4wTQI6f19xVt1mDDohmevtVfpVm8/5OZzultVWeKEpQK4fpqHgabS27G9xJjJZc3yfNZ5HMvC41a2k881cxpyc976nbmk4x/BPC8CpIUBL+C6N4zb/tYEJU/1WySvOSCSqru3OFQkycf2ZG7R1a6DDl/cC/dN22KxNBWAS+xYHcR4uX32NEFjOTcEFIgtiuSJ0ttUxSjquIMidZkn03bNZY/TwfecSU8UyQURpZqNKDEhSry5b2TYkjft00bpPol6wpoYBdEg4bLMpOQA6fhDWIVtkicP3hLdup4t0H9X1SZ7TCYz68CQXM4hDf4JdCJvmZs6ygeQXh7A1XfozIO66T9ixUMVjdRtxKrroEcPxr5SdiWSuFKjcB4iA1XVrwGs7L5DnmvUoZuRPRATy57Wh+bvxncL5oaD7vS82/yiHoah00Xtf2WBdVhSGPzN691HT0oThpzMmhj6E88z6BGOFq3GIcHeWV5IXGLghx2lod1LURbdnZzT5G20mbdc30nEPmU4NN4vtfRTRFwa4F+rxxvQCbfjsXii5SPcNrVHZhGHzBDebKSanzC91yI0/zKgwcuCExZPikLX9RYx/vwdejsZmoi6j8qwG8YipVCnaVTqeqXUHqEVLaSdS7TZueNFc5QkU0ap/E5kbqE6KuMqdedWA/pvgnTuy41oLHvVPPgnOKzWr1b5zEOVw66iHx1TKrRs2CPpOAyn1sYbDjzWpElfSvNHex8cFt9uNg8pUDh7Kvn9YPQFk+O0AcFk9TfvW0tAEpwc6DKaS4Kfv02Ryaqn35ubABCJDZwScgC2jtMTk1J2f9704lvwWRBJW0wV1suBn+gXPgmISAxHwZcOV5evMaY9VPlGJEvbB9p82jMPygyGqkxtIFZFF5fDejssTHnR/j1TU9awQb1K88Sd8torEqUZ0glkgqse1bskeDKrsKmhk8kvXcR/bmd9YOeQmS9WJ7ug/ROGuHazAE5DYtMYJPtanuo9aKlFqB9Cz7DFfGzMiv8TufA9W/I6K2GwMDTMMAhdEwpQQhrH+9vhVbVxSHl74AC/Xm9U1svAYUlpy01fowBoQxRCIR/Xl60Wa6uNAntU718XW9U3RU9j862460q3TOCO+G6I9KOkkZy/TESCpIWBylYWDGQTtuiNX8Gt2ZCnLhVcXPLunKCDLdiqPsRuW/yy6FsOsCCL1rG8aXyZ259CYZn5ZD5wEz3e6VW8qMjQm/CeQb/THS0jnP53PdGfy6PrylhAvJn5PEodtjrfo7YjU1uANyXhOgrQ2ZpczYecGMxf0OjD1UdQ/OqmIjzC4pkwKzBwXFg6dXjSAdKJUHncEi08pA9939r0wO0oXYwqM90/7H4NtsjxI2ZJzdbX765mNtIcA/Cl2yLS1AEoWC8jTb9lt0Ye3Rd8cGB9kKzUHBqZcy/wMK7DzwOyQCIX1jn2nJcSScRIVDzxh8h9Mr+1COGyE8+Cn944+exgN5UfXpBt7oYNcbU1S6v3pSBq/jRqTHiPFYNbXOUMP/AZnZYF78Dk19f+oIE2tLKLUT1j+3AkARboWpiWr7zEqfGkjZyn2eii4yVTIEgTKw3pHDgShAkdxFyKPQSioxBvfzvzLw1zIUjVMn1hQJXi/mMQwWumRALIV7rgMiM8wW5njbfH7N/RTTMlevNBgxGKa8P29w7SV2tTpDcm9AkHmg/MsbBjzwEctKKKoi9ZI/4sTPn8Yrgq1iJ818f4ptYblfKQi2PZz+xFaILE+ATWJiddIJ8e7kPfoyV9JCAXtGC8+rXJACuEFXdVcLDu1W2jG/yA/80hBNTRPglv8YuVI4gnNC/V/X8BmrPYL1gnbfGhz62emzVTjizs799REMd521x1oGmKkiV43Id6lUkh9nv97E9s0MRnEyvL+/prQNlRnEx5AnuLzmx5jC47DMReAyKrHc+TNQymMAfMDks/Pu2Z2A1aeVfFFuq18ABbi+S4wf5M1NnkjbCii20VJR4JoeRXhLnJl1cp2Fms4Jhm/xVE4OCSDEo6T3ykfSN7uvHDzhDWaMQUVJirw+Dm4z8jYbTlG97kEbQ87KWY3T5lbJetFFjg1IiYV5fDN8+INtvtCKCxQmT3l4/CdlcfUvg/JbQcRC/hcwbrD4zjhSDW3wVb+3WjqShBbZ+GXHNwmu8ehVUFSk/QpPeV/GJEtrfQkduJ03x3f6kqDNd9oCTcTB8NCL1zX0ecl7ArvglUwu/n+mNzKLyDydRpMr+XTU+1EB/wc+bdl6OBpzoQUvfsVEBUiTFCy0rDk1LZV3qSNbkx6mDjeyBWu66unCiJoBRO5GG7c3B9zMI9Xk3RlpgcGw13KUdYqwOpiOL1uTnlUXTHwQnfGK7feNkoej9szDgTlOwjf2lXiZ6NNvtT1YrasH+kbmX4HeuujBJVxl4Vknrk0nHiemJ7c4+7jwoAdSbml1P7f8vKaRveyFeCVDo6GNxkOyRv9lPRXz2uafoGm372UcbVo01aKOqKqRXgunl+vHl2PMsulEeJ0gXaX4CxVpgNB6wtENviRyeab7PrkMaNnN9OQITzVsfwwtfMbDgll4yopC9f+5HOFB82KzqooSqUfjLv78EIEfLk9UZg/Myn8UgXAf4NIFDmzR6M7RtEsoL+CcW5nap6p90pjUC0qkFcqcjR959yxDiTFQ+kn+g8SpBM4YT7X6qmbNUu4Bwlx26tWSdm5tCpbK8ysGxicOAes3KVTX4or9G7G4rXqXJ4DauUmdTpMERHSqtnBpgzP0FHLuKNjxfhzThWvS0VS2CLT8vNCHYXOANK1HB0eaE/epUCaW8HFrveRYgt7/Vu5GrmbMsOGdi16Bab3Kh8cpvZbcQ9VDZ1P/KBS627T+HP4kKdlVOZbDfr5DFQFBxY0GYTw0rF8Ghuat51iyVXwxxj5ncv1XwojOgZe59+8wJl/z2XoHMMhOjeWnRZ1OE/Wr2zrxQbxpE+tL0JS3KHGSozpleb3YPtzyAnXdIicwTDG3r9FC2lBFLfEUS8JekchmdoWZCR2nV9tftQDGQ0h0+hBdqjvyxTdhda/D24STQ+rZ0RDN4OeB7zCmamazG5be/H+2B10n23NW2FNVALj+3QVRDNOOlUV4DOCCXOKPSAcY5v15b6eV+coZiLK1OAgWnwj4kfW5yYC3Y55rmKZftNpxpl2oSGGjLIG1/ok+HGX+4Y75nSo2OsfPGAyLQXalUPCxkpkWmwZvGqWd6Wma3pN5cOxxI5ZYPkX64DtnNXTvqVj//8XCv+mK9P7zPKAV7IpjBgcC0q7Gu+3Gc/A7xhGZiqf3MiyKtCU5lqAsswPMlYQbKQyNOE1EZBQKj3Y7uJl5kgp8U+kHKF8nIEUlbmeuQ5bo778Q9tgDg6LhxBAOW1bTxcgxl8H6Chdwxd14MBtB30p+ESIxEiuqel4omR7eDNiOQMmIttZuSslIlVzx6yvF9+i++4U1TLvhGNY1ucz2gNZXk9a5MUAL5TarBEKm4lyCquCKAYNbHokmqQS3qkbl9ln4bR5K6be5vKEcKXKi7Fn+7sWu6YZFdRC1bR7OFjM2pL1zxR9oOpgbmKvA2izpgLa0y3p9+pvTV1bSVhmo2Up3bGRKr6+3Gu1Xso6dpLQKx+GPGbpPnzmdUg9M5UvpBxSiOm35Y4G2UxIU8hYnhV5XW3TbeqBDBVrT/B+TdxvCz/crNG8CbCMabx6DG1fQ5PvvkI0zNIkI/pFbI9zsYTwE5TFcG4GSwdSJO0RoGyX04yadwenhlXDT3hmI4Eft8UaDsoBFrRQSHVjTLzGc7JiFgoz+WdFiDDL0ffPRuDKjw0GQe/jWtvcBZvsj6FgNf68ONr2RxkeSTKM0Bwhh1J9trJEqCk52CFC90nF6g8zUkIAwm0X3IYMd8batkNCR3SvETrstVxLQiU2nt0A3puibVOEbyYZC0u6Y2c9zXU0K/7cyjvZZSm1pkiaNM7Nh1RXvt2WuFp1SBdcI/EiESOSLWWTJsI1w9ZXlqhc43+vzRB2ngXBEU7MjzXBYGEIeUZjLHPd9c12S8l+n0WEcgx9PuxkBPDgqqAyWUmEK1rEiSDLs6beMY1OvDdEmxgpLFcVJlPTK5TII2gX2UqA+K+t+D3EXy+K1srj+S5WxVsT+ziHaFMpXJkLdVH0Ohcnjwcjy3QkR6bka1xjpMDtynP0R2A2oWBFHJQ5mnZ3uywGAvsGMyNDkY+qIRDZja2fK+IH/j18dpChUFKmkp5wRKOd4GIcdrEhHaXLX0uSCustISbYuQugVBojQ+jl/TwlqOOv9o6/Hoe+o5jMHhUHPCVaGaWNRZY99lxce+lhUx7yc0wLJYs4J7OD6qjOsy2xhRCH91qf9+vJz0RJKICGN6xUZuuMjGsrsJX40QOhnEAsYxjfkVaK4T2vBK7mbyEkGReo/66tQTm7Hq5tTKgi3T4XdAKus1emx6wKtvOooCGOsalfvwv203I2NaqpAJWqQGeNxB37S/v8VdYkRRiBq1UaV359v72jDnQpcgwRb6IdF6g2IFddWLBwU+96MMcYOy2RIyWpXqSaxma+dFay8e63FLYlHAm2nNyuAsuHWN18Q3o20zDF7Jz9tbZ9W4aDxwWNm7K6gB0XPALzmqLzxkWMpNAEupYfH3RzdK0v+6ja6GxwCOFq27ErtvAnIcSVkeTu8V8L/myrW5/tQqDDR3mkVmqoI0+TuNyJEtwAlYsGYQA2OL5zHQSv+UftfsSdbKJlbBAN5IXT3fts+QxfTzPUb62/k20YK1KX93krJKXeb5LfsUFKoaxBQEjOYXfnjD/6yswwddgAhycJGCcWOy0Qb2j7ypShYyVJV1DfbssAj4IxSYYGtE3WgO3J/019SU1aIcO79Ui3hnEJHcRSXzXaZxU1eOk8fZD2UPfbPXaT0GmZmLaDEGnR1vZJMaEQi1XukXkQ4T10qk2tN4F2X398NIYpWgKojoC8330Uau+hqfFXfZwCFP1Jwv2EdDMWiGVaA8SY3InjQiHoJsIIJ/SUSyLjsSHo9rSHzm8K9hvSuUeCHQwsjvKkIewR2qZpQhurBjbyXTWYZkYu+j+QfNLrQBSnapxJFeGCa2NR7LyUza5zlEv90jLbaNvoUGr7m4UQlNF4O/oILmsQ31ihHUpGQyTtArzr9o8rqHZ8EN44P/mmtDrZAVuLhrAV93JDUMtH7Ud1erkKx3tkQW3vBXKRJW8SnAtJ5Yj0jJEPN/RyKwjIKSAIRUmGjAWHVZvl9ljnHfhzcgkDhoJ2Xzw5qZqj/4isDeqNSlDXuXWSJuus1bhrCqXeoxCTp+HaOrfjyL6/IPpB/rrShiwCzeTi1pR5U5p/tluTAUnkt2WB8mq3EoEgPTZH+D10rJujvK3S0UrCiEEi/asa0U2NzT86qr1Io/Jzy8och4iqaaIlGr3QehsuWS9aJaT4IzJz+HYr/DqkNkZq3iBSPqVAwij4cmmsbYjfjgaxcpwnryqFYtEDeEHiw6TA2uV3nq1NhhIg6AbJA9JAtp0BpdKcJKlkY2uFmQAfYyID2O9rI8qSID9MXjUdU5RR8fHTFySTW6QovL7vFTl1Wr/NXjhTGMBxcNPHjkz6rEN/5yEq/wWMCjLCkwBFK1CZy4VcwO8pGtpTXPIZIqL2qiaZvSwWCuklYJp8O7tJLb2Sb+NgXx/jxdskQsNbOPi1Zy/yynXjQmZ07+kKwAQVh55VMKKNR44XYE6tYlq/Kpl7u2GahdOBEG7z5ilQpzyTNFhr5C5KgNY2rofwKqVSn3bT5DmfmYswf77m5iiiU+g5TmP98ofaNWxzSAAv0cq2Pj7ILN7cfiVY5lrga4XfO6jpOYtR9s5KyoFQhhml1683i9FHvosX/onUg1b9031Pse3lCjXkTN5azo3bAPXSZlDNrm72PrO+rpa+8zf/F2a10DLe2Gt46ND2ShAZ+Lfn6O9tBc3l1ehNpuaW1e16Gs/cBO9F3yon+ihCLU3xieB7ANOTpzE3mjmRkjbTlRQMxnqcJlDIynkW2kKXV2NOpVdowWdV1+Idh4dIQfo8tvAU7uNiTNWJxc30FtHI/SRMYiwWqrVwtMPuojL9e9kmtT4jVxqfQxe8553uav250+7Cafp6LFWwnn155xldbGSZgYnKFr7ngoAE0w9cT0D6AM4Ku6qPyzIz/H28V1V+F7ML01PRr3nqBzvzSJ1eqgcy8+rjCVM+q39g9YNhiD0Y1N2kzGkT7BCfN9WHpqPEDSeJJJpZqzszaVEn5QpY7h615eaWcDmwyAayqQphj/Aun90a4W43SW4h2imCEOnH4DZwEKKoNUBTMuKRc6SeGasbZXNskHa4Z/O/c7c+jEQ+2fUaZqedMwkv8PHMhPLAxuoGUFuHu5Ozn2+jVD9vp8Gcj8me5is8GmV9F8kIPEg+pNvFxA8fXuol0QL8lFW4qMSnT3n+wEPWZgMIaK5rw4G3rZ/sozIC01AcvyRdCSN06kW2r9y6Of+tmfxi7Dgxn3ONWMVgJS9b24t4/tnvMnU5baRwsILsqxvpiRWJEgSMoF6h5TlZLs/DEBZuFbFhjXPT8nxsyWCbXs7I3mqOWE+P2giP7W2R9dI9oXHoSqsw+Ni5+JBjZCQbibGyKueVvBpw2xR+++5ekQTX3s1m91tieg/go3TvAAAA;" vertex="1" parent="1">
          <mxGeometry x="710" y="932.83" width="602.5" height="401.67" as="geometry" />
        </mxCell>
        <mxCell id="CtdOX46LtKlbMSyHWcbX-98" value="Mercurio UDA" style="rounded=1;fillColor=#10739E;strokeColor=none;shadow=1;gradientColor=none;fontStyle=1;fontColor=#FFFFFF;fontSize=14;" vertex="1" parent="1">
          <mxGeometry x="690" y="430" width="200" height="64.5" as="geometry" />
        </mxCell>
      </root>
    </mxGraphModel>
  </diagram>
</mxfile>
